<svg xmlns="http://www.w3.org/2000/svg" xmlns:xlink="http://www.w3.org/1999/xlink" width="188.14" height="188.15" viewBox="0 0 188.14 188.15"><defs><clipPath id="a"><circle cx="94.07" cy="94.07" r="94.07" fill="#7c6990"/></clipPath></defs><circle cx="94.07" cy="94.07" r="94.07" fill="#7c6990"/><g transform="translate(0 0.01)" clip-path="url(#a)"><path d="M214.05,248.71H105a54.07,54.07,0,0,1,2.91-17.61q.5-1.5,1.11-3h0c.39-1,.82-1.93,1.27-2.88a54.17,54.17,0,0,1,6.64-10.59c.66-.81,1.33-1.6,2-2.36.34-.39.7-.77,1.06-1.15l1.09-1.11A53.651,53.651,0,0,1,127,205c1-.77,2.08-1.49,3.17-2.19.4-.25.79-.5,1.19-.73.17-.11.36-.21.53-.31.54-.32,1.07-.63,1.62-.93.44-.23.87-.49,1.3-.76a31.2,31.2,0,0,0,3.69-2.57,34.42,34.42,0,0,0,13-27h7.95l8.15.05a34.51,34.51,0,0,0,2,11.51,35.068,35.068,0,0,0,1.84,4.26,34.58,34.58,0,0,0,9.12,11.14c.74.61,1.5,1.16,2.29,1.69l.23.16c.37.25.74.5,1.13.72s.86.52,1.29.75a.4.4,0,0,1,.18.1c.49.26,1,.54,1.44.83s.83.48,1.24.74.84.52,1.25.82c.86.55,1.69,1.14,2.5,1.76h0c1,.77,2.05,1.59,3,2.44s1.94,1.72,2.85,2.64a54.26,54.26,0,0,1,16.09,38.59Z" transform="translate(-65.41 -47.98)" fill="#ecc19c"/><path d="M214.05,248.71H105a54.07,54.07,0,0,1,2.91-17.61q.5-1.5,1.11-3h0c.39-1,.82-1.93,1.27-2.88a54.17,54.17,0,0,1,6.64-10.59c.66-.81,1.33-1.6,2-2.36.34-.39.7-.77,1.06-1.15l1.09-1.11A53.651,53.651,0,0,1,127,205c1-.77,2.08-1.49,3.17-2.19.4-.25.79-.5,1.19-.73.17-.12.35-.22.52-.32.54-.32,1.08-.63,1.63-.93h0c.44-.24.87-.49,1.3-.75a30.666,30.666,0,0,0,3.67-2.59h0a29.31,29.31,0,0,0,21,8.85h.08a29.353,29.353,0,0,0,21-8.844l0,0c.73.61,1.5,1.17,2.28,1.7l.23.16c.37.25.75.49,1.13.72s.86.51,1.29.74a.64.64,0,0,1,.18.1c.49.26,1,.54,1.45.83s.83.49,1.23.75.84.52,1.25.82c.86.55,1.69,1.14,2.5,1.76h0c1,.78,2.06,1.59,3,2.45s1.94,1.72,2.85,2.64a54.26,54.26,0,0,1,16.1,38.54Z" transform="translate(-65.41 -47.98)" fill="#185a7d"/><path d="M187.14,201.7h0L186,202.85A36.86,36.86,0,0,1,159.5,214h0a36.91,36.91,0,0,1-26.55-11.16l-1.07-1.1h0c.54-.32,1.08-.63,1.63-.93h0c.44-.24.87-.49,1.3-.75a30.669,30.669,0,0,0,3.67-2.59h0a29.31,29.31,0,0,0,21,8.85h.08a29.353,29.353,0,0,0,21-8.844l0,0c.73.61,1.5,1.17,2.28,1.7l.23.16c.37.25.75.49,1.13.72s.86.51,1.29.74a.64.64,0,0,1,.18.1A13.011,13.011,0,0,1,187.14,201.7Z" transform="translate(-65.41 -47.98)" fill="#7aa5ba"/><path d="M201.37,112.07v27.45a5.653,5.653,0,0,1-.06,1c-.06.31,0,.47-.05.71a1.155,1.155,0,0,0,0,.42,2.973,2.973,0,0,1-.08.78,4.816,4.816,0,0,0-.09.74c-.04.25-.05.48-.09.73-.09.74-.22,1.48-.35,2.21-.09.49-.18,1-.29,1.47v.06a1.7,1.7,0,0,1,0,.22v.06a.13.13,0,0,1,0,.06.505.505,0,0,1-.07.31c-.07.1,0,.25-.08.37a1.638,1.638,0,0,1-.1.38,2.712,2.712,0,0,1-.12.55,3,3,0,0,1-.09.32,1.067,1.067,0,0,1-.07.27c-.22.84-.47,1.67-.72,2.49l-.38,1.16a.609.609,0,0,1,0,.12c-.12.35-.24.7-.37,1.05l-.12.32c-.12.33-.25.66-.38,1s-.32.79-.48,1.18l-.45,1a1.3,1.3,0,0,0-.08.17l-.51,1.1c-.18.38-.36.77-.56,1.15-.37.75-.77,1.5-1.17,2.23l-.55,1a59.752,59.752,0,0,1-5.26,7.65c-.25.34-.52.67-.8,1s-.77.92-1.16,1.36-.7.78-1.06,1.16c-1,1.06-2,2.07-3,3-.21.21-.42.39-.64.59s-.7.62-1.06.92-.56.49-.85.72c-.74.61-1.48,1.2-2.23,1.74a9.7,9.7,0,0,1-1,.68c-.51.37-1,.72-1.56,1.06-.29.19-.59.38-.89.55-1,.6-1.93,1.14-2.89,1.63l-.26.13-.77.38-.81.37c-.33.16-.67.3-1,.43a4.158,4.158,0,0,1-.4.16c-.41.16-.82.32-1.22.45s-1,.34-1.52.48c-.35.11-.71.2-1.06.28h-.07c-.35.08-.7.17-1.05.23l-.28.05c-.28,0-.57.1-.86.13s-.82.12-1.23.14a3.108,3.108,0,0,1-.43,0h-2a2.311,2.311,0,0,1-.37,0,6.884,6.884,0,0,1-.89-.09h-.2l-1.15-.18c-.33-.05-.66-.13-1-.21a28.871,28.871,0,0,1-5.4-1.82c-.61-.27-1.24-.56-1.86-.89a32.526,32.526,0,0,1-2.85-1.6c-.8-.48-1.59-1-2.37-1.54l-1.17-.84q-1.84-1.35-3.63-2.92l-1-.91c-.33-.29-.66-.6-1-.9-.81-.77-1.59-1.57-2.35-2.41-.3-.31-.59-.64-.89-1-.83-.93-1.63-1.88-2.39-2.88-.3-.36-.57-.73-.85-1.1q-1.5-2.07-3-4.31c-.25-.4-.5-.81-.73-1.21s-.57-1-.85-1.47a57.734,57.734,0,0,1-2.79-5.76c-.13-.29-.25-.58-.35-.86s-.31-.75-.44-1.12c-.21-.55-.4-1.09-.59-1.64s-.36-1.1-.53-1.65-.32-1.07-.47-1.62-.32-1.16-.45-1.76v-.18c-.2-.82-.37-1.66-.52-2.5-.21-1.11-.38-2.24-.5-3.38,0-.36-.08-.72-.11-1.08s-.07-.75-.09-1.13c-.06-.69-.09-1.39-.11-2.09V112.07a41.72,41.72,0,0,1,3.26-16.22,3,3,0,0,1,.18-.41A40.42,40.42,0,0,1,123.92,90c.17-.28.34-.54.52-.81a41.82,41.82,0,0,1,35-19h0a42.21,42.21,0,0,1,9.27,1,40.79,40.79,0,0,1,7.84,2.62A41.45,41.45,0,0,1,186,79.67a41,41,0,0,1,6.45,6.58c.74.94,1.44,1.92,2.1,2.93.18.28.37.55.53.84a40.8,40.8,0,0,1,2.84,5.4l.18.43a41.449,41.449,0,0,1,3.25,15.85A2.234,2.234,0,0,1,201.37,112.07Z" transform="translate(-65.41 -47.98)" fill="#ecc19c"/><path d="M201.37,137.16v2.36a5.653,5.653,0,0,1-.06,1c-.06.31,0,.47-.05.71a1.155,1.155,0,0,0,0,.42,2.973,2.973,0,0,1-.08.78l-.09.74a4.694,4.694,0,0,1-.09.73c-.09.74-.22,1.48-.35,2.21-.08.43-.16.85-.26,1.27a1.723,1.723,0,0,1,0,.26,1.7,1.7,0,0,1,0,.22v.06a.13.13,0,0,1,0,.06h0a.551.551,0,0,1-.07.33,3.181,3.181,0,0,1-.08.33,1.64,1.64,0,0,1-.1.38,5.839,5.839,0,0,1-.15.6,1.311,1.311,0,0,1-.06.27,1.067,1.067,0,0,1-.07.27c-.22.84-.47,1.67-.72,2.49l-.38,1.16a.609.609,0,0,1,0,.12c-.12.35-.24.7-.37,1.05l-.12.32c-.12.33-.25.66-.38,1s-.32.79-.48,1.18l-.45,1a1.3,1.3,0,0,0-.08.17l-.51,1.1c-.18.38-.36.77-.56,1.15-.37.75-.77,1.5-1.17,2.23l-.55,1a59.752,59.752,0,0,1-5.26,7.65c-.25.34-.52.67-.8,1s-.77.92-1.16,1.36-.7.78-1.06,1.16c-1,1.06-2,2.07-3,3-.21.21-.42.39-.64.59s-.7.62-1.06.92-.56.49-.85.72c-.74.61-1.48,1.2-2.23,1.74a9.7,9.7,0,0,1-1,.68c-.51.37-1,.72-1.56,1.06-.29.19-.59.38-.89.55-1,.6-1.93,1.14-2.89,1.63l-.26.13-.77.38-.81.37c-.33.16-.67.3-1,.43a4.166,4.166,0,0,1-.4.16c-.41.16-.82.32-1.22.45s-1,.34-1.52.48c-.35.11-.71.2-1.06.28h-.07c-.35.08-.7.17-1.05.23l-.28.05c-.28,0-.57.1-.86.13s-.82.12-1.23.14a3.111,3.111,0,0,1-.43,0h-2a2.311,2.311,0,0,1-.37,0,6.882,6.882,0,0,1-.89-.09h-.2l-1.15-.18c-.33-.05-.66-.13-1-.21a28.871,28.871,0,0,1-5.4-1.82c-.61-.27-1.24-.56-1.86-.89a32.538,32.538,0,0,1-2.85-1.6c-.8-.47-1.58-1-2.37-1.54l-1.17-.84q-1.84-1.35-3.63-2.92l-1-.91c-.33-.29-.66-.6-1-.9-.81-.77-1.59-1.57-2.35-2.41-.3-.31-.59-.64-.89-1-.83-.93-1.63-1.88-2.39-2.88-.3-.36-.57-.73-.85-1.1q-1.5-2.07-3-4.31c-.25-.4-.5-.81-.73-1.21s-.57-1-.85-1.47a57.745,57.745,0,0,1-2.79-5.76c-.13-.29-.25-.58-.35-.86s-.31-.75-.44-1.12c-.21-.55-.4-1.09-.59-1.64s-.36-1.1-.53-1.65-.32-1.07-.47-1.62-.32-1.16-.45-1.76v-.18c-.2-.82-.37-1.66-.52-2.5-.21-1.11-.38-2.24-.5-3.38,0-.36-.08-.72-.11-1.08s-.07-.75-.09-1.13c-.06-.69-.09-1.39-.11-2.09v-1.36l6.69,13.14,11.48,5,13.58,1.22h0l10.07.92h.06l9.42.85h0l21,1.89Z" transform="translate(-65.41 -47.98)" fill="#d2dce5"/><path d="M159.56,143.76v10.13h0v15.59h-.05L119,148.88v-.18c-.2-.82-.37-1.66-.52-2.5-.21-1.11-.38-2.24-.5-3.38,0-.36-.08-.72-.11-1.08s-.07-.75-.09-1.13c-.06-.69-.09-1.39-.11-2.09V125.77a41.6,41.6,0,0,0,1.45,9.21,42.43,42.43,0,0,0,2.62,7.07h0c2.7,5.6,6.31,9.4,9.63,10l.63.07a34.652,34.652,0,0,0,4,.23c5.24,0,9.9-4.22,12.83-5.92h.06l.44-.28.12-.07a20.81,20.81,0,0,1,10-2.32Z" transform="translate(-65.41 -47.98)" fill="#d2dce5"/><path d="M201.39,124.87v12.29a49.8,49.8,0,0,1-.83,9c-.21,1.18-.46,2.34-.75,3.49l-9.49,13.7-30.78,6.1h0V143.72h.08a20.85,20.85,0,0,1,10,2.32l.11.07.45.28h.05c2.94,1.7,7.59,5.92,12.83,5.92a37.066,37.066,0,0,0,4-.22l.64-.07c3.31-.62,6.93-4.43,9.61-10h0a42.12,42.12,0,0,0,4.1-16.78A2.173,2.173,0,0,1,201.39,124.87Z" transform="translate(-65.41 -47.98)" fill="#d2dce5"/><ellipse cx="10.25" cy="3.17" rx="10.25" ry="3.17" transform="translate(83.86 105.91)" fill="#ecc19c"/><path d="M196.18,111.45a.34.34,0,0,0-.3-.35,110.629,110.629,0,0,0-15.2-1.13c-8.07,0-18.49,2.53-20.31,2.53h-1.61c-.85,0-3.56-.55-7-1.13a83.732,83.732,0,0,0-13.27-1.4,113.15,113.15,0,0,0-13,.83c-1,.12-1.81.24-2.21.3a.34.34,0,0,0-.3.35l-.08,4.34a.39.39,0,0,0,.22.35l.49.16c.73.28.67,13.36,4.57,16.63,2.31,1.92,4.38,3,13.07,3,5,0,8.19-1.36,11.19-5.41,2.16-2.91,4.09-9.79,4.09-9.79a3.41,3.41,0,0,1,3-3.08h.08c.07,0,2.46,0,3.07,3.08,0,0,1.93,6.88,4.09,9.79,3,4.05,6.16,5.41,11.19,5.41,8.69,0,10.76-1.1,13.07-3,3.9-3.27,3.83-16.35,4.56-16.63l.5-.16a.39.39,0,0,0,.22-.35Zm-43.77,15.47c-1.28,3-4.57,6.92-9.22,7.16-13.93.7-14.57-3.19-15.47-6.27a21.14,21.14,0,0,1-.78-8.87c.36-3.08,1.14-4.89,2.54-5.8a6.18,6.18,0,0,1,2.93-1,56.942,56.942,0,0,1,7.67-.35,39.48,39.48,0,0,1,6.2.47c4.95.8,8.3,2.49,8.3,4.14a30.82,30.82,0,0,1-2.17,10.52Zm39,.89c-.9,3.08-1.54,7-15.47,6.27-4.65-.24-7.95-4.14-9.22-7.16a30.82,30.82,0,0,1-2.17-10.53c0-2.28,6.34-4.61,14.5-4.61s9.46.6,10.6,1.36c1.4.91,2.18,2.72,2.54,5.8a21.14,21.14,0,0,1-.78,8.87Z" transform="translate(-65.41 -47.98)" fill="#1a1a1a"/><path d="M201.47,95.84H117.65c0-29.6,19.95-28.41,41.83-26h0l4.68.53c16.36,1.82,29.69-5.26,36.36-11.52C209.62,65.36,211.23,89.23,201.47,95.84Z" transform="translate(-65.41 -47.98)" fill="#d2dce5"/><path d="M132.25,94.1l-.22.71c-.12.35-.23.7-.35,1s-.2.56-.31.82a47.75,47.75,0,0,1-8.4,14.07c-2.51,3-5,7.74-5.29,15V95.85l3.44-.41,3.35-.4,3.95-.47Z" transform="translate(-65.41 -47.98)" fill="#d2dce5"/><path d="M201.58,95.85,187,94.11l.22.71a47.24,47.24,0,0,0,9.06,15.92c2.65,3.15,5.31,8.3,5.31,16.32Z" transform="translate(-65.41 -47.98)" fill="#d2dce5"/><path d="M190.67,94.11c0,3.27-14,5.91-31.19,5.91s-31.19-2.64-31.19-5.91,14-5.91,31.19-5.91S190.67,90.85,190.67,94.11Z" transform="translate(-65.41 -47.98)" fill="#d2dce5"/><path d="M159.48,69.88V248.73H105a54.07,54.07,0,0,1,2.91-17.61q.495-1.5,1.11-3h0c.39-1,.82-1.93,1.27-2.88a54.17,54.17,0,0,1,6.64-10.59c.66-.81,1.33-1.6,2-2.36.34-.39.7-.77,1.06-1.15l1.09-1.11A53.649,53.649,0,0,1,127,205c1-.77,2.08-1.49,3.17-2.19.4-.25.79-.5,1.19-.73.17-.12.35-.22.52-.32.54-.32,1.08-.63,1.63-.93h0c.44-.24.87-.49,1.3-.75a30.666,30.666,0,0,0,3.67-2.59h0a34.43,34.43,0,0,0,9.14-11.09,32.526,32.526,0,0,1-2.85-1.6c-.8-.47-1.58-1-2.37-1.54l-1.17-.84q-1.84-1.35-3.63-2.92l-1-.91c-.33-.29-.66-.6-1-.9-.81-.77-1.59-1.57-2.35-2.41-.3-.31-.59-.64-.89-1-.83-.93-1.63-1.88-2.39-2.88-.3-.36-.57-.73-.85-1.1q-1.5-2.07-3-4.31c-.25-.4-.5-.81-.73-1.21s-.57-1-.85-1.47a57.744,57.744,0,0,1-2.79-5.76c-.13-.29-.25-.58-.35-.86s-.31-.75-.44-1.12c-.21-.55-.4-1.09-.59-1.64s-.36-1.1-.53-1.65-.32-1.07-.47-1.62-.32-1.16-.45-1.76v-.18c-.2-.82-.37-1.66-.52-2.5-.21-1.11-.38-2.24-.5-3.38,0-.36-.08-.72-.11-1.08s-.07-.75-.09-1.13c-.06-.69-.09-1.39-.11-2.09V95.85C117.65,66.25,137.6,67.44,159.48,69.88Z" transform="translate(-65.41 -47.98)" fill="#ecc19c" opacity="0.5"/></g></svg>