<svg xmlns="http://www.w3.org/2000/svg" xmlns:xlink="http://www.w3.org/1999/xlink" width="188.14" height="188.14" viewBox="0 0 188.14 188.14"><defs><clipPath id="a"><circle cx="94.07" cy="94.07" r="94.07" fill="#b5dc79"/></clipPath></defs><g transform="translate(-479.712 -1021.687)"><circle cx="94.07" cy="94.07" r="94.07" transform="translate(479.712 1021.687)" fill="#b5dc79"/><g transform="translate(479.712 1021.687)" clip-path="url(#a)"><path d="M364.34,678.32c0,4-1.57,7.41-3.82,8.85a4.23,4.23,0,0,1-4.75,0c-2.25-1.44-3.83-4.87-3.83-8.85a13.13,13.13,0,0,1,1.16-5.55c1.11-2.43,3-4,5-4s3.93,1.59,5,4a13.129,13.129,0,0,1,1.24,5.55Z" transform="translate(-305.93 -528.97)" fill="#141720"/><path d="M364.34,667.21a13.07,13.07,0,0,1-1.16,5.56c-1.12,2.43-3,4-5,4s-3.91-1.57-5-4a13.9,13.9,0,0,1,0-11.12c1.13-2.43,3-4,5-4s3.92,1.58,5,4A13.07,13.07,0,0,1,364.34,667.21Z" transform="translate(-305.93 -528.97)" fill="#141720"/><path d="M364.34,656.09a13.11,13.11,0,0,1-1.16,5.56c-1.12,2.42-3,4-5,4s-3.91-1.59-5-4a13.9,13.9,0,0,1,0-11.12c1.11-2.43,3-4,5-4s3.93,1.59,5,4a13.14,13.14,0,0,1,1.16,5.56Z" transform="translate(-305.93 -528.97)" fill="#141720"/><path d="M364.34,645a13.07,13.07,0,0,1-1.16,5.56c-1.12,2.43-3,4-5,4s-3.91-1.58-5-4a13.88,13.88,0,0,1,0-11.11c1.11-2.44,3-4,5-4s3.93,1.58,5,4A13.091,13.091,0,0,1,364.34,645Z" transform="translate(-305.93 -528.97)" fill="#141720"/><path d="M364.34,633.85A13.543,13.543,0,0,1,364,637a11.281,11.281,0,0,1-.82,2.46c-1.12,2.43-3,4-5,4s-3.91-1.57-5-4a13.9,13.9,0,0,1,0-11.12c1.11-2.43,3-4,5-4a4.279,4.279,0,0,1,1.34.22,6.72,6.72,0,0,1,3.7,3.79,13.06,13.06,0,0,1,1.12,5.5Z" transform="translate(-305.93 -528.97)" fill="#141720"/><path d="M364.34,622.73a13.151,13.151,0,0,1-1.16,5.57,8.3,8.3,0,0,1-1.8,2.59,4.7,4.7,0,0,1-3.24,1.42c-2.07,0-3.91-1.59-5-4a13.9,13.9,0,0,1,0-11.12c1.11-2.44,3-4,5-4s3.93,1.58,5,4A13.09,13.09,0,0,1,364.34,622.73Z" transform="translate(-305.93 -528.97)" fill="#141720"/><path d="M364.34,611.62v.33a12.94,12.94,0,0,1-1.15,5.23c-1,2.16-2.56,3.65-4.37,4a3.709,3.709,0,0,1-.67.06c-2.07,0-3.91-1.58-5-4a13.9,13.9,0,0,1,0-11.12,8.81,8.81,0,0,1,1.56-2.36,4.8,4.8,0,0,1,3.48-1.65c2.08,0,3.92,1.58,5,4A13.071,13.071,0,0,1,364.34,611.62Z" transform="translate(-305.93 -528.97)" fill="#141720"/><path d="M364.34,600.49a13.151,13.151,0,0,1-1.16,5.57c-1,2.17-2.58,3.67-4.4,4h0a4.338,4.338,0,0,1-.63.05c-2.07,0-3.91-1.59-5-4a13.15,13.15,0,0,1-1.16-5.57,14.432,14.432,0,0,1,.41-3.42c.9-3.59,3.15-6.14,5.79-6.14C361.57,590.93,364.34,595.21,364.34,600.49Z" transform="translate(-305.93 -528.97)" fill="#141720"/><path d="M298.8,651.37H286.67l3.69-12.17,2.38-7.85,2.37,7.85,1.15,3.78Z" transform="translate(-240.52 -481)" fill="#141720"/><path d="M448.06,678.32c0,5.29-2.77,9.57-6.19,9.57s-6.2-4.28-6.2-9.57,2.77-9.57,6.2-9.57S448.06,673,448.06,678.32Z" transform="translate(-305.93 -528.97)" fill="#141720"/><path d="M448.06,667.21c0,5.28-2.77,9.57-6.19,9.57s-6.2-4.29-6.2-9.57,2.77-9.57,6.2-9.57S448.06,661.92,448.06,667.21Z" transform="translate(-305.93 -528.97)" fill="#141720"/><path d="M448.06,656.09c0,5.28-2.77,9.57-6.19,9.57s-6.2-4.29-6.2-9.57,2.77-9.57,6.2-9.57S448.06,650.8,448.06,656.09Z" transform="translate(-305.93 -528.97)" fill="#141720"/><path d="M448.06,645c0,5.29-2.77,9.57-6.19,9.57s-6.2-4.28-6.2-9.57,2.77-9.57,6.2-9.57S448.06,639.68,448.06,645Z" transform="translate(-305.93 -528.97)" fill="#141720"/><path d="M448.06,633.85c0,5.29-2.77,9.57-6.19,9.57s-6.2-4.28-6.2-9.57,2.77-9.57,6.2-9.57S448.06,628.57,448.06,633.85Z" transform="translate(-305.93 -528.97)" fill="#141720"/><path d="M448.06,622.73c0,5.29-2.77,9.57-6.19,9.57s-6.2-4.28-6.2-9.57,2.77-9.57,6.2-9.57S448.06,617.45,448.06,622.73Z" transform="translate(-305.93 -528.97)" fill="#141720"/><path d="M448.06,611.62c0,5.28-2.77,9.57-6.19,9.57s-6.2-4.29-6.2-9.57,2.77-9.57,6.2-9.57S448.06,606.33,448.06,611.62Z" transform="translate(-305.93 -528.97)" fill="#141720"/><path d="M448.06,600.5c0,5.28-2.77,9.57-6.19,9.57s-6.2-4.29-6.2-9.57,2.77-9.57,6.2-9.57S448.06,595.21,448.06,600.5Z" transform="translate(-305.93 -528.97)" fill="#141720"/><path d="M376.46,631.35l-6.07,20.02h12.13Z" transform="translate(-240.52 -481)" fill="#141720"/><path d="M454.54,729.72H345.47a54,54,0,0,1,2.91-17.61q.495-1.5,1.11-3h0c.39-1,.82-1.94,1.27-2.88a53.059,53.059,0,0,1,3.95-6.92c.84-1.25,1.75-2.49,2.69-3.67.66-.81,1.33-1.6,2-2.37.34-.39.7-.77,1.06-1.15l1.09-1.11.1-.09a53.825,53.825,0,0,1,5.79-5c1-.77,2.08-1.49,3.17-2.19l.43-.25c.94-.61,1.91-1.18,2.9-1.71H374c.36-.19.71-.39,1.06-.62l.23-.13.87-.55.27-.17c.25-.17.5-.33.74-.52s.62-.43.92-.65h0c.3-.22.59-.45.88-.68h0a34.2,34.2,0,0,0,4.74-4.58A34.679,34.679,0,0,0,390,663.12c.37-1,.7-2.12,1-3.22.21-.77.37-1.55.51-2.34a34.923,34.923,0,0,0,.54-6.09h16.17a35.751,35.751,0,0,0,.51,6c.14.8.31,1.59.52,2.37.26,1.08.57,2.14.93,3.17a33.633,33.633,0,0,0,2.8,6,33.164,33.164,0,0,0,3.11,4.42,33.631,33.631,0,0,0,5.05,5c.27.22.54.44.82.64a2.479,2.479,0,0,0,.26.19h0l.45.33c.24.17.48.34.73.5a1.7,1.7,0,0,0,.23.17l.56.37.57.35c.22.12.43.26.64.38s.42.26.64.37a1,1,0,0,1,.18.09l.34.19.21.12.81.46c.44.26.9.53,1.33.8s.84.53,1.25.83c.86.54,1.69,1.14,2.5,1.76h0c1,.77,2.05,1.59,3,2.43s1.81,1.62,2.68,2.48l.17.16a54.42,54.42,0,0,1,16,38.6Z" transform="translate(-305.93 -528.97)" fill="#dfb28b"/><path d="M454.54,729.72H345.47a54,54,0,0,1,2.91-17.61q.495-1.5,1.11-3h0c.39-1,.82-1.94,1.27-2.88a53.059,53.059,0,0,1,3.95-6.92c.84-1.25,1.75-2.49,2.69-3.67.66-.81,1.33-1.6,2-2.37.34-.39.7-.77,1.06-1.15l1.09-1.11.1-.09a53.825,53.825,0,0,1,5.79-5c1-.77,2.08-1.49,3.17-2.19l.43-.25c.94-.61,1.91-1.18,2.9-1.71H374l1.06-.62.23-.13.87-.55.83-.56.34-.25.76-.54h.07l.8-.64h0c.59.59,1.19,1.17,1.82,1.72l.95.78h0l.88.69.21.14.92.64c.7.46,1.42.89,2.15,1.29.37.21.74.4,1.12.59s.78.37,1.18.53a.549.549,0,0,0,.15.08,28.313,28.313,0,0,0,2.71,1c.35.12.7.22,1.06.31l1,.25a.781.781,0,0,0,.23,0,29.472,29.472,0,0,0,3.19.55c.37,0,.74.09,1.12.12.77.06,1.53.09,2.3.09h.76a1.3,1.3,0,0,0,.34,0h.33a7.373,7.373,0,0,0,1.43-.09c.43-.09.82-.1,1.22-.15a1.173,1.173,0,0,0,.32,0,5.8,5.8,0,0,0,.93-.15,1.51,1.51,0,0,0,.37-.07l.67-.14a2.526,2.526,0,0,0,.66-.15l1.35-.36c.44-.14.88-.27,1.31-.42s.91-.32,1.35-.51l.64-.25a26.679,26.679,0,0,0,3.06-1.56c.35-.19.69-.4,1-.6l.66-.45c.18-.12.37-.24.54-.37.37-.25.73-.52,1.09-.8s.71-.56,1.05-.85a26.317,26.317,0,0,0,2-1.83h0c.35.29.71.56,1.07.84h0l.13.1h.06c.32.23.65.47,1,.69a1.705,1.705,0,0,0,.23.17c.37.25.75.48,1.13.72s.86.5,1.29.74a1,1,0,0,1,.18.09c.12.06.23.14.33.2l.21.12.81.46c.44.26.9.53,1.33.8s.84.53,1.25.83c.86.54,1.69,1.14,2.5,1.76h0c1,.78,2.06,1.59,3,2.44s1.81,1.62,2.68,2.48l.17.16a54.42,54.42,0,0,1,16,38.6Z" transform="translate(-305.93 -528.97)" fill="#9d78dc"/><path d="M400.09,687.32h0l-.05.07a14.87,14.87,0,0,1-23.36,2l-5.58-6c.94-.61,1.91-1.18,2.9-1.71h0l1.06-.62.23-.13.87-.55.27-.17.56-.39.18-.13.92-.65h0l.06-.06.8-.64h0c.59.59,1.2,1.17,1.83,1.71.31.27.63.54.95.78h0c.29.24.59.47.88.69l.21.14c.3.23.61.44.92.64a22.241,22.241,0,0,0,2.15,1.29c.37.21.74.4,1.12.59s.79.37,1.18.53a.55.55,0,0,0,.15.08,28.372,28.372,0,0,0,2.71,1c.35.12.7.22,1.06.31s.64.18,1,.25a.781.781,0,0,0,.23,0,22.127,22.127,0,0,0,3.19.55,10.354,10.354,0,0,0,1.12.12c.75.07,1.52.1,2.29.1Z" transform="translate(-305.93 -528.97)" fill="#e7ecf2"/><path d="M429.05,683.6l-5.5,5.9a14.87,14.87,0,0,1-23.41-2.11h0a29.39,29.39,0,0,0,21-8.84h0c.73.6,1.49,1.17,2.27,1.69l.23.17,1.14.72,1.28.74a1.63,1.63,0,0,1,.19.09c.9.5,1.79,1,2.67,1.58A1.2,1.2,0,0,1,429.05,683.6Z" transform="translate(-305.93 -528.97)" fill="#e7ecf2"/><path d="M429.14,563a51,51,0,0,1-64.81,49,54.256,54.256,0,0,1-5.55-1.93h0l-.63-.28-.5-.22a49.333,49.333,0,0,1,66.66-68.24c.31.64.6,1.3.89,2A51,51,0,0,1,429.14,563Z" transform="translate(-305.93 -528.97)" fill="#141720"/><path d="M449.32,584.24a49.14,49.14,0,0,1-4.89,21.43A50.93,50.93,0,0,1,425.2,543.3c.16-.39.33-.77.5-1.16a49.3,49.3,0,0,1,23.62,42.1Z" transform="translate(-305.93 -528.97)" fill="#141720"/><path d="M441.86,581.76v33.72a5.433,5.433,0,0,1-.06,1c-.06.34,0,.47-.05.71a1.149,1.149,0,0,0,0,.42,2.974,2.974,0,0,1-.08.78c-.05.5-.11,1-.18,1.47a.923.923,0,0,1-.05.37,6.685,6.685,0,0,0-.11.74h0a.679.679,0,0,0,0,.14c-.07.31-.12.62-.17.92-.09.5-.18,1-.29,1.48v.06a1.556,1.556,0,0,1,0,.21v.06a2.7,2.7,0,0,1-.14.64v.15a2.453,2.453,0,0,1-.09.34,2.711,2.711,0,0,1-.12.55,1.655,1.655,0,0,1-.09.32,1.541,1.541,0,0,0-.07.27c-.22.84-.47,1.66-.72,2.48-.13.4-.25.78-.38,1.17v.12c-.11.33-.23.67-.35,1v.05c0,.1-.08.2-.12.32-.12.33-.25.65-.38,1s-.32.8-.48,1.19l-.45,1a1.3,1.3,0,0,0-.08.17l-.51,1.1c-.18.38-.36.76-.56,1.14v.05c-.36.73-.75,1.47-1.14,2.18l-.55,1a61.178,61.178,0,0,1-5.26,7.65c-.25.34-.52.67-.8,1s-.77.91-1.16,1.35-.67.75-1,1.11h0c-1,1.06-2,2.07-3,3l-.64.58c-.35.32-.7.63-1.06.93s-.56.48-.85.72c-.74.6-1.48,1.19-2.23,1.74a9.658,9.658,0,0,1-1,.67c-.51.37-1,.72-1.56,1.06-.29.2-.59.38-.89.56l-.14.08q-1.5.93-3,1.68l-.77.38-.81.37-1,.43-.4.15c-.41.17-.82.32-1.22.46s-1,.33-1.52.48l-1.06.28h-.07c-.35.08-.7.16-1.05.22h-.28a8.11,8.11,0,0,1-.86.14c-.41.06-.82.11-1.23.13a3.1,3.1,0,0,1-.43,0h-2a2.312,2.312,0,0,1-.37,0,3.387,3.387,0,0,1-.89-.08h-.2c-.38-.05-.76-.11-1.15-.19s-.66-.12-1-.2a29.609,29.609,0,0,1-5.4-1.82,39,39,0,0,1-4.71-2.49l-.27-.16c-.7-.44-1.41-.9-2.1-1.38l-1.17-.84c-1.23-.9-2.44-1.88-3.63-2.92l-1-.91-1-.9q-1.16-1.1-2.22-2.28l-.13-.13c-.3-.32-.6-.65-.89-1-.83-.92-1.63-1.88-2.39-2.88-.3-.36-.57-.73-.85-1.1-1-1.37-2-2.81-2.95-4.3-.25-.41-.5-.82-.73-1.22s-.57-1-.85-1.47c-.4-.72-.78-1.45-1.15-2.19-.59-1.16-1.14-2.35-1.64-3.56-.13-.29-.25-.58-.35-.87s-.31-.75-.44-1.12a5.442,5.442,0,0,1-.19-.52c-.14-.37-.28-.74-.4-1.11-.19-.55-.36-1.1-.53-1.66s-.32-1.07-.47-1.61-.32-1.17-.45-1.76v-.19h0c-.2-.8-.36-1.62-.52-2.45q-.09-.45-.15-.93c-.14-.8-.25-1.63-.34-2.45-.05-.36-.08-.72-.11-1.08s-.07-.75-.09-1.13c-.06-.69-.09-1.39-.11-2.09V581.64A41.86,41.86,0,0,1,397.7,540h5.04l.92.07h.75a46.186,46.186,0,0,1,4.8.79,41.525,41.525,0,0,1,7.84,2.63,40.634,40.634,0,0,1,6.6,3.71,31.12,31.12,0,0,1,2.78,2.1c.35.28.69.57,1,.86h0A40.093,40.093,0,0,1,433,556a41.56,41.56,0,0,1,8.9,25.44A.78.78,0,0,0,441.86,581.76Z" transform="translate(-305.93 -528.97)" fill="#dfb28b"/><path d="M449.32,584.24a49.071,49.071,0,0,1-1.687,12.751,47,47,0,0,1-2.3,6.659c-.28.67-.58,1.34-.9,2-.87-.57-1.73-1.17-2.57-1.8-.61-.45-1.22-.92-1.82-1.4a51.19,51.19,0,0,1-14.84-19.81A51,51,0,0,1,364.33,612a54.242,54.242,0,0,1-5.55-1.93h0l-.63-.28-.5-.22a49.333,49.333,0,0,1,66.66-68.24c.47.25.93.53,1.39.81a49.3,49.3,0,0,1,23.62,42.1Z" transform="translate(-305.93 -528.97)" fill="#141720"/><path d="M350.67,584.24a49.33,49.33,0,0,0,1.68,12.83,14.433,14.433,0,0,0-.41,3.42,13.15,13.15,0,0,0,1.16,5.57,13.9,13.9,0,0,0,0,11.12,13.9,13.9,0,0,0,0,11.12,13.9,13.9,0,0,0,0,11.12,13.88,13.88,0,0,0,0,11.11,13.9,13.9,0,0,0,0,11.12,13.9,13.9,0,0,0,0,11.12,13.13,13.13,0,0,0-1.16,5.55c0,4,1.58,7.41,3.83,8.85l-3.69,12.17h2.63a53.057,53.057,0,0,0-3.95,6.92c-.45.94-.88,1.9-1.27,2.88h0q-.615,1.5-1.11,3a54,54,0,0,0-2.91,17.61H400V534.92a49.322,49.322,0,0,0-49.33,49.33Zm36.53,84.81a33.146,33.146,0,0,1-3.46,4.83,34.2,34.2,0,0,1-4.74,4.58h0l-.8.64h-.07l-.76.54-.34.25-.83.56-.87.55-.23.13-1.06.62H374a31.576,31.576,0,0,0-2.9,1.71l-.43.25c-1.09.7-2.13,1.42-3.17,2.19a53.828,53.828,0,0,0-5.79,5l-1.15-3.78c2.25-1.44,3.82-4.87,3.82-8.85a13.131,13.131,0,0,0-1.16-5.55,13.9,13.9,0,0,0,0-11.12,13.9,13.9,0,0,0,0-11.12,13.88,13.88,0,0,0,0-11.11A11.277,11.277,0,0,0,364,637c.37.74.75,1.47,1.15,2.19.28.5.56,1,.85,1.47s.48.81.73,1.22c.92,1.49,1.91,2.93,2.95,4.3.28.37.55.74.85,1.1a35.8,35.8,0,0,0,2.39,2.88c.29.34.59.67.89,1l.13.13q1.06,1.18,2.22,2.28l1,.9,1,.91c1.19,1,2.4,2,3.63,2.92l1.17.84c.69.48,1.4.94,2.1,1.38l.27.16a38.982,38.982,0,0,0,4.71,2.49,33.171,33.171,0,0,1-2.84,5.88Z" transform="translate(-305.93 -528.97)" fill="#dfb28b" opacity="0.5"/></g></g></svg>