<svg xmlns="http://www.w3.org/2000/svg" xmlns:xlink="http://www.w3.org/1999/xlink" width="266.071" height="266.071" viewBox="0 0 266.071 266.071"><defs><clipPath id="a"><circle cx="94.07" cy="94.07" r="94.07" transform="translate(0 133.036) rotate(-45)" fill="#eb6d4a"/></clipPath></defs><g transform="translate(-920.455 38.19)"><circle cx="94.07" cy="94.07" r="94.07" transform="translate(920.455 94.846) rotate(-45)" fill="#eb6d4a"/><g transform="translate(920.455 -38.19)" clip-path="url(#a)"><path d="M682.36,101.53v32.62c0,.94-.07,1.87-.15,2.8a7.357,7.357,0,0,1-.1,1c-.13,1.32-.31,2.63-.55,3.92-.08.43-.16.86-.26,1.28a1.837,1.837,0,0,1,0,.25c-.08.44-.18.86-.29,1.28a3.316,3.316,0,0,1-.15.68,4,4,0,0,1-.17.58c-.21.85-.46,1.67-.72,2.49-.12.39-.24.77-.38,1.16v.13c-.12.35-.24.7-.37,1L679,151c-.12.33-.25.66-.38,1s-.32.79-.48,1.18a10.7,10.7,0,0,1-.46,1l-.07.18-.51,1.1c-.18.38-.36.76-.56,1.14-.37.75-.77,1.5-1.17,2.23l-.55,1a62.274,62.274,0,0,1-5.26,7.65c-.26.34-.52.66-.8,1-.38.47-.77.92-1.16,1.36s-.7.78-1.06,1.16c-1,1.06-2,2.07-3,3-.21.21-.43.4-.64.59s-.7.63-1.06.93l-.85.72c-.74.6-1.48,1.19-2.23,1.73a8.332,8.332,0,0,1-1,.68c-.51.37-1,.72-1.56,1.06-.29.2-.59.38-.89.56-1.05.64-2.11,1.24-3.15,1.75-.26.14-.52.26-.78.38s-.52.25-.8.37-.68.3-1,.44a3.382,3.382,0,0,1-.41.15c-.4.17-.81.32-1.21.45s-1,.34-1.52.49-.71.19-1.06.27h-.07c-.35.09-.7.17-1.05.23l-.28.05-.86.14c-.41.06-.82.11-1.24.13a2.858,2.858,0,0,1-.42,0h-2a2.311,2.311,0,0,1-.37,0,3.506,3.506,0,0,1-.9-.08H638a6.727,6.727,0,0,1-1.15-.19c-.39-.07-.66-.12-1-.2a29.61,29.61,0,0,1-5.4-1.82,41.389,41.389,0,0,1-4.72-2.49c-.79-.49-1.58-1-2.36-1.54l-1.17-.85c-1.23-.89-2.44-1.87-3.63-2.92l-1-.9-1-.91q-1.2-1.16-2.34-2.4c-.3-.32-.6-.65-.89-1-.83-.92-1.63-1.88-2.39-2.88-.3-.36-.58-.73-.85-1.1-1-1.38-2-2.82-2.95-4.31-.25-.4-.5-.81-.73-1.21s-.57-1-.85-1.47a54.641,54.641,0,0,1-2.79-5.76c-.13-.29-.25-.57-.35-.86s-.31-.75-.45-1.12c-.2-.55-.4-1.09-.58-1.64l-.54-1.65c-.18-.55-.31-1.07-.46-1.62s-.32-1.16-.45-1.75v-.19c-.2-.82-.37-1.65-.53-2.5-.2-1.11-.37-2.24-.49-3.38-.05-.36-.08-.72-.11-1.08s-.08-.75-.1-1.13c0-.69-.08-1.39-.1-2.09V101.53a41.868,41.868,0,0,1,41.82-41.86h.01a42.269,42.269,0,0,1,9.27,1,41.4,41.4,0,0,1,7.83,2.62A41.87,41.87,0,0,1,682.3,101.5Z" transform="translate(-507.468 -9.78)" fill="#ecc19c"/><path d="M695,249.49H586a54.289,54.289,0,0,1,2.91-17.61q.51-1.5,1.11-3h0c.4-1,.83-1.93,1.28-2.88a53.8,53.8,0,0,1,6.64-10.58q1-1.23,2-2.37c.34-.39.7-.77,1.06-1.15l1.09-1.11a54.6,54.6,0,0,1,5.89-5.08c1-.77,2.09-1.49,3.18-2.19s2.2-1.35,3.33-2h0c.45-.24.88-.5,1.31-.77a29.257,29.257,0,0,0,2.5-1.66c.41-.29.8-.59,1.19-.91a35.165,35.165,0,0,0,2.67-2.36L623,195c.57-.6,1.12-1.23,1.64-1.86.26-.31.52-.63.75-.95s.49-.65.72-1a34.27,34.27,0,0,0,6.4-20h16.12a34.4,34.4,0,0,0,12.92,26.91c.38.31.76.61,1.14.89s.75.54,1.14.8l.24.17c.37.24.74.49,1.13.71s.86.52,1.29.76a.51.51,0,0,1,.18.09c.91.5,1.8,1,2.67,1.57.43.26.85.53,1.26.82.85.56,1.69,1.14,2.5,1.76h0A54.53,54.53,0,0,1,695,249.49Z" transform="translate(-507.468 -9.78)" fill="#ecc19c"/><path d="M695,249.49H586a54.289,54.289,0,0,1,2.91-17.61q.51-1.5,1.11-3h0c.39-1,.83-1.94,1.28-2.88a53.866,53.866,0,0,1,6.64-10.59c.66-.82,1.33-1.61,2-2.37.34-.39.69-.77,1.05-1.15l1.09-1.11a54.708,54.708,0,0,1,5.9-5.08c1-.77,2.08-1.49,3.17-2.19s2.2-1.36,3.33-2h0l1.3-.75a31.852,31.852,0,0,0,3.67-2.59h0a29.31,29.31,0,0,0,21,8.85h.08a29.353,29.353,0,0,0,21-8.844l0,0a26.864,26.864,0,0,0,2.28,1.69l.23.17,1.13.72,1.29.74a1,1,0,0,1,.18.09c.91.5,1.8,1,2.68,1.58.42.26.84.53,1.25.83.85.54,1.69,1.14,2.5,1.75h0a55,55,0,0,1,5.88,5.09A54.28,54.28,0,0,1,695,249.49Z" transform="translate(-507.468 -9.78)" fill="#c5d4e2"/><path d="M682.36,132.8v1.35c0,.94-.07,1.87-.15,2.8a7.357,7.357,0,0,1-.1,1c-.13,1.32-.31,2.63-.55,3.92-.08.43-.16.86-.26,1.28a1.837,1.837,0,0,1,0,.25c-.08.44-.18.86-.29,1.28-.05.25-.11.48-.18.72a3.289,3.289,0,0,1-.14.54c-.21.85-.46,1.67-.72,2.49-.12.39-.24.77-.38,1.16v.13c-.12.35-.24.7-.37,1L679,151c-.12.33-.25.66-.38,1s-.32.79-.48,1.18a10.7,10.7,0,0,1-.46,1l-.07.18-.51,1.1c-.18.38-.36.76-.56,1.14-.37.75-.77,1.5-1.17,2.23l-.55,1a62.274,62.274,0,0,1-5.26,7.65c-.26.34-.52.66-.8,1-.38.47-.77.92-1.16,1.36s-.7.78-1.06,1.16c-1,1.06-2,2.07-3,3-.21.21-.43.4-.64.59s-.7.63-1.06.93l-.85.72c-.74.6-1.48,1.19-2.23,1.73a8.332,8.332,0,0,1-1,.68c-.51.37-1,.72-1.56,1.06-.29.2-.59.38-.89.56-1.05.64-2.11,1.24-3.15,1.75-.26.14-.52.26-.78.38s-.52.25-.8.37-.68.3-1,.44a3.382,3.382,0,0,1-.41.15c-.4.17-.81.32-1.21.45s-1,.34-1.52.49-.71.19-1.06.27h-.07c-.35.09-.7.17-1.05.23l-.28.05-.86.14c-.41.06-.82.11-1.24.13a2.858,2.858,0,0,1-.42,0h-2a2.311,2.311,0,0,1-.37,0,3.506,3.506,0,0,1-.9-.08H638a6.727,6.727,0,0,1-1.15-.19c-.39-.07-.66-.12-1-.2a29.61,29.61,0,0,1-5.4-1.82,41.389,41.389,0,0,1-4.72-2.49c-.79-.47-1.57-1-2.36-1.54l-1.17-.85c-1.23-.89-2.44-1.87-3.63-2.92l-1-.9-1-.91q-1.2-1.16-2.34-2.4c-.3-.32-.6-.65-.89-1-.83-.92-1.63-1.88-2.39-2.88-.3-.36-.58-.73-.85-1.1-1-1.38-2-2.82-2.95-4.31-.25-.4-.5-.81-.73-1.21s-.57-1-.85-1.47a54.641,54.641,0,0,1-2.79-5.76c-.13-.29-.25-.57-.35-.86s-.31-.75-.45-1.12c-.2-.55-.4-1.09-.58-1.64l-.54-1.65c-.18-.55-.31-1.07-.46-1.62s-.32-1.16-.45-1.75v-.19c-.2-.82-.37-1.65-.53-2.5-.2-1.11-.37-2.24-.49-3.38-.05-.36-.08-.72-.11-1.08s-.08-.75-.1-1.13c0-.69-.08-1.39-.1-2.09v-1.35l6.68,13.14,11.49,5,13.58,1.23,10.08.91h.06l9.43.85,21,1.9Z" transform="translate(-507.468 -9.78)" fill="#543e36"/><path d="M673.45,75.71a57.642,57.642,0,0,1-7.86,12.86l-.56.67a57.69,57.69,0,0,1-32.42,19.59q-2.7.57-5.49.89a58.6,58.6,0,0,1-6.53.36,56.931,56.931,0,0,1-7.44-.48,53.751,53.751,0,0,1-7-1.34c-1.31-.32-2.58-.71-3.85-1.13s-2.46-.86-3.66-1.35v-4.25a41.868,41.868,0,0,1,41.82-41.86h.01a42.27,42.27,0,0,1,9.27,1,41.4,41.4,0,0,1,7.83,2.62,42.08,42.08,0,0,1,15.84,12.39Z" transform="translate(-507.468 -9.78)" fill="#543e36"/><path d="M682.36,101.53v8.24a64.39,64.39,0,0,1-17.31-20.49h0a63.709,63.709,0,0,1-7.42-25.92,41.87,41.87,0,0,1,24.75,38.21Z" transform="translate(-507.468 -9.78)" fill="#543e36"/><path d="M603.55,104.76c-.45.77-.85,1.56-1.25,2.37l-.46,1A34.842,34.842,0,0,0,598.65,121V103.57C600.29,104,601.91,104.4,603.55,104.76Z" transform="translate(-507.468 -9.78)" fill="#543e36"/><path d="M677.48,104.76c.62,1.09,1.18,2.21,1.71,3.36a34.449,34.449,0,0,1,3.2,13.27V103.57C680.74,104,679.12,104.39,677.48,104.76Z" transform="translate(-507.468 -9.78)" fill="#543e36"/><path d="M677.4,108.91a.36.36,0,0,0-.31-.35,113.351,113.351,0,0,0-15.31-1.14c-8.13,0-18.63,2.55-20.46,2.55h-1.63c-.85,0-3.58-.55-7.08-1.14a85.121,85.121,0,0,0-13.38-1.41,112.14,112.14,0,0,0-13.08.84c-1,.13-1.82.24-2.22.3a.36.36,0,0,0-.31.35l-.09,4.37a.38.38,0,0,0,.24.35l.49.18c.73.27.67,13.44,4.6,16.73,2.33,2,4.41,3.06,13.16,3.06,5.07,0,8.26-1.37,11.28-5.45,2.18-2.93,4.11-9.86,4.11-9.86.59-2.86,2.72-3.09,3.06-3.11h0c.07,0,2.46,0,3.09,3.11,0,0,1.93,6.93,4.11,9.86,3,4.08,6.21,5.45,11.28,5.45,8.75,0,10.83-1.11,13.16-3.06,3.93-3.29,3.87-16.46,4.6-16.73l.49-.18a.37.37,0,0,0,.24-.35ZM633.3,124.5c-1.29,3-4.61,7-9.28,7.21-14,.71-14.69-3.21-15.59-6.32a21.252,21.252,0,0,1-.79-8.93c.37-3.11,1.15-4.93,2.56-5.84a6.381,6.381,0,0,1,2.95-1,55.609,55.609,0,0,1,7.73-.36,39.861,39.861,0,0,1,6.24.48c5,.81,8.37,2.5,8.37,4.18a31.18,31.18,0,0,1-2.19,10.58Zm39.28.89c-.9,3.11-1.55,7-15.58,6.32-4.68-.24-8-4.17-9.29-7.21a31.18,31.18,0,0,1-2.19-10.6c0-2.3,6.4-4.66,14.61-4.66s9.53.62,10.69,1.38c1.4.91,2.19,2.73,2.56,5.84a21.249,21.249,0,0,1-.8,8.93Z" transform="translate(-507.468 -9.78)" fill="#1a1a1a"/><path d="M640.55,139.4v25.72h0L600,144.52v-.19c-.2-.82-.37-1.65-.53-2.5-.2-1.11-.37-2.24-.49-3.38-.05-.36-.08-.72-.11-1.08s-.08-.75-.1-1.13c0-.69-.08-1.39-.1-2.09V121.03a41.135,41.135,0,0,0,1.47,9.59,42.315,42.315,0,0,0,2.62,7.06h0c2.7,5.6,6.31,9.41,9.63,10l.62.08a37.35,37.35,0,0,0,4,.22c5.25,0,9.9-4.21,12.83-5.92h.07l.44-.28.12-.07a20.81,20.81,0,0,1,10-2.31Z" transform="translate(-507.468 -9.78)" fill="#543e36"/><path d="M682.37,120.51V132.8a50.716,50.716,0,0,1-.82,9c-.22,1.17-.46,2.34-.75,3.49L671.3,159l-30.78,6.1h0V139.37h.08a20.81,20.81,0,0,1,10,2.32l.11.07.46.28h0c2.94,1.7,7.59,5.92,12.83,5.92a37.208,37.208,0,0,0,4-.22l.64-.08c3.31-.61,6.93-4.42,9.61-10h0a41.452,41.452,0,0,0,2.62-7.06,40.259,40.259,0,0,0,1.47-9.72A1.463,1.463,0,0,0,682.37,120.51Z" transform="translate(-507.468 -9.78)" fill="#543e36"/><ellipse cx="10.25" cy="3.17" rx="10.25" ry="3.17" transform="translate(122.782 139.75)" fill="#ecc19c"/><path d="M610.56,203.92v56.56h-4.37V207.11c.58-.48,1.17-.94,1.76-1.38C608.81,205.09,609.67,204.5,610.56,203.92Z" transform="translate(-507.468 -9.78)" fill="#415364"/><path d="M605.04,155.96v56.55h4.37V159.15Z" transform="translate(-442.058 38.19)" fill="#415364"/><path d="M563.13,152.49l11.96,14.33,11.96-14.33Z" transform="translate(-442.058 38.19)" fill="#141720"/><path d="M640.5,274.18h-7.07l5.11-65.8c.21.84,3.71.84,3.92,0l5.11,65.8Z" transform="translate(-507.468 -9.78)" fill="#141720"/><path d="M640.5,200.38v.05h0l-5,8.33-4.64,7.78L618.3,199.12c.4-.29.8-.6,1.18-.92h0a34,34,0,0,0,6.62-7l14.34,9.13Z" transform="translate(-507.468 -9.78)" fill="#e7ecf2"/><path d="M662.7,199.12l-12.55,17.45-4.64-7.78-5-8.33v-.08l14.43-9.19a34.342,34.342,0,0,0,6.63,7A11.822,11.822,0,0,0,662.7,199.12Z" transform="translate(-507.468 -9.78)" fill="#e7ecf2"/><path d="M640.46,59.67V249.5H586a54.289,54.289,0,0,1,2.91-17.61q.51-1.5,1.11-3h0c.39-1,.83-1.93,1.28-2.88a53.8,53.8,0,0,1,6.64-10.58q1-1.23,2-2.37c.34-.39.7-.77,1.06-1.15l1.09-1.11a53.449,53.449,0,0,1,4.13-3.7c.58-.48,1.17-.94,1.76-1.38.86-.64,1.72-1.23,2.61-1.81l.57-.38c1.09-.7,2.2-1.36,3.33-2h0c.45-.25.88-.5,1.31-.76.85-.52,1.69-1.07,2.49-1.67.4-.29.8-.6,1.18-.92h0a34.74,34.74,0,0,0,11-15.34,39.747,39.747,0,0,1-4.72-2.48c-.79-.48-1.57-1-2.36-1.55q-.58-.4-1.17-.84c-1.23-.89-2.44-1.87-3.63-2.92l-1-.9-1-.91q-1.2-1.16-2.34-2.4l-.9-1c-.82-.93-1.62-1.88-2.38-2.88-.3-.36-.58-.73-.85-1.1q-1.56-2.07-3-4.31l-.73-1.21-.84-1.47a54.656,54.656,0,0,1-2.79-5.76c-.13-.29-.25-.57-.35-.86s-.31-.75-.45-1.12c-.2-.55-.4-1.09-.58-1.64l-.54-1.65c-.18-.55-.32-1.07-.46-1.62s-.32-1.16-.45-1.76v-.18c-.2-.82-.37-1.66-.53-2.5-.2-1.11-.37-2.24-.49-3.38-.05-.36-.08-.72-.11-1.08s-.08-.75-.1-1.13c0-.69-.08-1.39-.1-2.09V101.53A41.86,41.86,0,0,1,640.46,59.67Z" transform="translate(-507.468 -9.78)" fill="#ecc19c" opacity="0.5"/></g></g></svg>