<svg xmlns="http://www.w3.org/2000/svg" xmlns:xlink="http://www.w3.org/1999/xlink" width="266.081" height="266.071" viewBox="0 0 266.081 266.071"><defs><clipPath id="a"><circle cx="94.07" cy="94.07" r="94.07" transform="translate(0 133.036) rotate(-45)" fill="#4ac8eb"/></clipPath></defs><g transform="translate(-920.455 -982.917)"><circle cx="94.07" cy="94.07" r="94.07" transform="translate(920.465 1115.952) rotate(-45)" fill="#4ac8eb"/><g transform="translate(920.455 982.917)" clip-path="url(#a)"><path d="M695,726.79H585.93A54.34,54.34,0,0,1,602,688.11c.46-.46.93-.9,1.41-1.35a55.112,55.112,0,0,1,4.49-3.73c1-.77,2.1-1.49,3.18-2.19s2.19-1.35,3.33-2h0c.44-.25.88-.5,1.31-.76a32.346,32.346,0,0,0,3.69-2.56,34.66,34.66,0,0,0,11-15.34h0a34.222,34.222,0,0,0,2-11.64l16.12.07a34.32,34.32,0,0,0,12.92,26.93l1,.8c.48.36,1,.71,1.47,1s.75.49,1.13.72.85.51,1.28.75h.11l.09.06c1.26.7,2.5,1.44,3.69,2.22l1.19.8c.52.37,1,.74,1.55,1.13h0A54.42,54.42,0,0,1,695,726.79Z" transform="translate(-507.467 -490.2)" fill="#a57561"/><path d="M695,726.79H585.93A54.34,54.34,0,0,1,602,688.11c.46-.46.93-.9,1.41-1.35a55.25,55.25,0,0,1,4.49-3.74c1-.76,2.1-1.49,3.18-2.18s2.19-1.35,3.33-2h0c.44-.25.88-.5,1.31-.76a32.346,32.346,0,0,0,3.69-2.56,29.42,29.42,0,0,0,42.06,0l1,.8c.48.36,1,.71,1.47,1s.75.49,1.13.72.85.51,1.28.75h.11l.09.05c1.26.7,2.5,1.44,3.69,2.23l1.19.8c.52.37,1,.74,1.55,1.13h0A54.42,54.42,0,0,1,695,726.79Z" transform="translate(-507.467 -490.2)" fill="#eb6d4a"/><path d="M598.61,576v34.12c0,29,25.44,52.46,41.86,52.46s41.85-23.49,41.85-52.46V576Z" transform="translate(-507.467 -490.2)" fill="#a57561"/><path d="M598.61,606h0a3.73,3.73,0,0,0,3.73-3.73V578.52h-3.73Z" transform="translate(-507.467 -490.2)" fill="#141720"/><path d="M682.32,606h0V578.52h-3.73v23.73a3.73,3.73,0,0,0,3.73,3.75Z" transform="translate(-507.467 -490.2)" fill="#141720"/><path d="M682.32,577.49c0,4.89-.33,6.06-3.74,5.8-.13-2.36-17.14-4.29-38.11-4.29s-38,1.93-38.12,4.29c-3.41.26-3.74-.91-3.74-5.8v-1.52c.52-12.05,7.32-34.58,41.83-34.58s41.3,22.53,41.82,34.58C682.3,576.51,682.32,577,682.32,577.49Z" transform="translate(-507.467 -490.2)" fill="#141720"/><path d="M661.53,675.28a67.229,67.229,0,0,1-21,30.3,67.259,67.259,0,0,1-21-30.3l.16.06a31.26,31.26,0,0,0,41.71,0Z" transform="translate(-507.467 -490.2)" fill="#fff"/><path d="M640.47,541.39V726.8H585.93A54.25,54.25,0,0,1,602,688.12q1.65-1.67,3.45-3.16c.79-.66,1.61-1.31,2.45-1.93a52.3,52.3,0,0,1,4.82-3.2c.56-.33,1.13-.65,1.69-1h0a33.495,33.495,0,0,0,5-3.33h0a34.489,34.489,0,0,0,11-15.36c-15.09-6.65-31.86-26.55-31.86-50.08V576h0C599.16,563.92,606,541.39,640.47,541.39Z" transform="translate(-507.467 -490.2)" fill="#ecc19c" opacity="0.5"/></g></g></svg>