<svg xmlns="http://www.w3.org/2000/svg" xmlns:xlink="http://www.w3.org/1999/xlink" width="266.071" height="266.071" viewBox="0 0 266.071 266.071"><defs><clipPath id="a"><circle cx="94.07" cy="94.07" r="94.07" transform="translate(0 133.036) rotate(-45)" fill="#7adbd4"/></clipPath></defs><g transform="translate(-440.752 -472.98)"><circle cx="94.07" cy="94.07" r="94.07" transform="translate(440.752 606.015) rotate(-45)" fill="#7adbd4"/><g transform="translate(440.752 472.98)" clip-path="url(#a)"><path d="M457.88,355.93c0,1.62-.07,3.23-.2,4.82a57.444,57.444,0,0,1-9.46,27.19,58.437,58.437,0,0,1-4.91,6.38c-.44.49-.89,1-1.34,1.45a54.482,54.482,0,0,1-4.7,4.42c-.42.36-.84.71-1.27,1.05a57.777,57.777,0,0,1-6.48,4.47c-.7.42-1.42.82-2.14,1.21a56.86,56.86,0,0,1-19,6.26,55.631,55.631,0,0,1-8.42.62,56.527,56.527,0,0,1-8.28-.6,57.389,57.389,0,0,1-19.12-6.28c-1-.52-1.9-1.06-2.81-1.62a57.252,57.252,0,0,1-7.86-5.79c-.26-.23-.54-.46-.8-.71a56.356,56.356,0,0,1-5.16-5.32c-.3-.34-.6-.69-.88-1.05a58.259,58.259,0,0,1-6.35-9.6c-.17-.33-.34-.65-.5-1a58.812,58.812,0,0,1-3.53-8.73c-.18-.61-.36-1.22-.52-1.82a56.249,56.249,0,0,1-1.79-9.68l-.15-1.67c-.08-1.33-.13-2.68-.13-4,0-.82,0-1.62.05-2.42a7.909,7.909,0,0,1,.06-1.19,57.767,57.767,0,0,1,1-7.72c.11-.57.24-1.13.36-1.69a55.305,55.305,0,0,1,1.7-5.89c.23-.7.49-1.4.76-2.08a57.412,57.412,0,0,1,2.8-6.12c.84-1.58,1.74-3.11,2.72-4.59.63-1,1.28-1.9,2-2.83s1.55-2,2.37-3a54.684,54.684,0,0,1,4.58-4.79c.56-.52,1.11-1,1.69-1.52a55.94,55.94,0,0,1,6.91-5.13c.82-.53,1.65-1,2.51-1.5,1.23-.7,2.5-1.36,3.79-2,.8-.38,1.61-.74,2.44-1.08a59,59,0,0,1,7.5-2.53c1.3-.33,2.61-.62,3.95-.87a56.5,56.5,0,0,1,6.15-.82c1.05-.08,2.11-.14,3.18-.16h1.39c1.11,0,2.21,0,3.3.1.7,0,1.4.09,2.09.15a56.28,56.28,0,0,1,8.5,1.44c.64.15,1.27.32,1.9.49a58.129,58.129,0,0,1,9,3.39c.82.39,1.63.79,2.43,1.22a46.028,46.028,0,0,1,4.37,2.58l.75.49a58.407,58.407,0,0,1,5.66,4.37,43.409,43.409,0,0,1,3.42,3.23,56.752,56.752,0,0,1,4.76,5.52c.3.38.58.76.85,1.15a57.756,57.756,0,0,1,3.92,6.24l.62,1.19a58.06,58.06,0,0,1,6.32,26.32Z" transform="translate(-266.968 -250.28)" fill="#141720"/><path d="M364.56,395.05a.761.761,0,0,1,0,.15,5.06,5.06,0,0,1-2.62,4.31,3.322,3.322,0,0,1-.6.29,5.09,5.09,0,0,1-7-4.75,5.448,5.448,0,0,1,.19-1.41,4.709,4.709,0,0,1,.54-1.21,5.07,5.07,0,0,1,4.36-2.48,5.21,5.21,0,0,1,1.33.17,4.809,4.809,0,0,1,1.77.87,5.411,5.411,0,0,1,1.14,1.2,5,5,0,0,1,.89,2.86Z" transform="translate(-266.968 -250.28)" fill="#141720"/><path d="M350.57,340a5.11,5.11,0,0,1-7.34,4.59,5.36,5.36,0,0,1-1-.65,5.11,5.11,0,0,1,1.69-8.8,4.771,4.771,0,0,1,1.56-.25,3.9,3.9,0,0,1,.59,0,5.07,5.07,0,0,1,4.45,4.26,4.363,4.363,0,0,1,.05.85Z" transform="translate(-266.968 -250.28)" fill="#141720"/><path d="M379.17,305.91a5.16,5.16,0,0,1-.95,3,5.05,5.05,0,0,1-3,2,4.7,4.7,0,0,1-1.2.15,5.09,5.09,0,0,1-5-4,4.93,4.93,0,0,1-.13-1.09,5,5,0,0,1,.18-1.3,5.1,5.1,0,0,1,4.93-3.8,5,5,0,0,1,1.56.24,5.07,5.07,0,0,1,3.54,4.86Z" transform="translate(-266.968 -250.28)" fill="#141720"/><circle cx="5.1" cy="5.1" r="5.1" transform="translate(155.172 52.72)" fill="#141720"/><path d="M349.52,356.92a4.86,4.86,0,0,1-.35,1.84,5.1,5.1,0,0,1-4.76,3.27,5,5,0,0,1-2-.41,5.381,5.381,0,0,1-1.17-.71,5.1,5.1,0,0,1,.27-8.18,5.242,5.242,0,0,1,.73-.41,5,5,0,0,1,2.18-.5,5.1,5.1,0,0,1,4.75,3.23,4.9,4.9,0,0,1,.35,1.87Z" transform="translate(-266.968 -250.28)" fill="#141720"/><path d="M444.18,397.18a5.1,5.1,0,1,1-1.49-3.613,5.11,5.11,0,0,1,1.49,3.613Z" transform="translate(-266.968 -250.28)" fill="#141720"/><circle cx="5.1" cy="5.1" r="5.1" transform="translate(172.262 135.86)" fill="#141720"/><circle cx="5.1" cy="5.1" r="5.1" transform="translate(160.272 146.06)" fill="#141720"/><path d="M405.5,299.38a5.13,5.13,0,0,1-5.1,5.11,2.68,2.68,0,0,1-.4,0,4.91,4.91,0,0,1-2.66-1,5.07,5.07,0,0,1-2-4.08,4.829,4.829,0,0,1,.13-1.15,5.05,5.05,0,0,1,1.91-2.92,4.91,4.91,0,0,1,2.66-1,2.68,2.68,0,0,1,.4,0,5.13,5.13,0,0,1,5,4,5.488,5.488,0,0,1,.06,1.04Z" transform="translate(-266.968 -250.28)" fill="#141720"/><circle cx="5.1" cy="5.1" r="5.1" transform="translate(177.372 69.58)" fill="#141720"/><path d="M361.93,386.13a7.2,7.2,0,0,1-.39,2.38,6.78,6.78,0,0,1-.76,1.61,7.48,7.48,0,0,1-4.81,3.36,6.06,6.06,0,0,1-1.42.16h-.13a7.52,7.52,0,0,1-7.53-7.52,7.609,7.609,0,0,1,.81-3.4,5.6,5.6,0,0,1,.54-.88,7.49,7.49,0,0,1,6.18-3.24h.64a7.5,7.5,0,0,1,6.87,7.49Z" transform="translate(-266.968 -250.28)" fill="#141720"/><path d="M376.11,397.89A7.5,7.5,0,0,1,371,405a6.917,6.917,0,0,1-1.209.3,6.809,6.809,0,0,1-1.21.1,7.47,7.47,0,0,1-7.25-5.6,4.79,4.79,0,0,1-.2-1,7.007,7.007,0,0,1-.06-.91,7.51,7.51,0,0,1,2.19-5.31,5.057,5.057,0,0,1,.43-.39,7.39,7.39,0,0,1,4.89-1.83,7.53,7.53,0,0,1,7.53,7.53Z" transform="translate(-266.968 -250.28)" fill="#141720"/><path d="M358.09,331.67a7.52,7.52,0,0,1-7.52,7.53h-.07a7.44,7.44,0,0,1-5.21-2.18,7.121,7.121,0,0,1-1.39-1.87,7.4,7.4,0,0,1-.85-3.48,7.51,7.51,0,0,1,4.6-6.92,7.291,7.291,0,0,1,2.92-.59,6.629,6.629,0,0,1,1,.07,7.45,7.45,0,0,1,6.42,6.36,5.493,5.493,0,0,1,.1,1.08Z" transform="translate(-266.968 -250.28)" fill="#141720"/><circle cx="7.52" cy="7.52" r="7.52" transform="matrix(0.265, -0.964, 0.964, 0.265, 143.499, 59.453)" fill="#141720"/><path d="M390.4,303a7.38,7.38,0,0,1-.52,2.74,7.511,7.511,0,0,1-14.49-2.22,4.75,4.75,0,0,1,0-.54,6.89,6.89,0,0,1,.27-1.94A7.494,7.494,0,0,1,390.4,303Z" transform="translate(-266.968 -250.28)" fill="#141720"/><path d="M354.36,365.91a7.51,7.51,0,0,1-9.65,7.21,6.89,6.89,0,0,1-1.51-.63,7.51,7.51,0,0,1-3.89-6.58,7.43,7.43,0,0,1,1.92-5,5.16,5.16,0,0,1,1-1,7.42,7.42,0,0,1,4.58-1.57,7.56,7.56,0,0,1,7.53,7.53Z" transform="translate(-266.968 -250.28)" fill="#141720"/><circle cx="7.52" cy="7.52" r="7.52" transform="translate(165.512 61.73)" fill="#141720"/><circle cx="7.52" cy="7.52" r="7.52" transform="translate(173.879 82.618) rotate(-28.36)" fill="#141720"/><path d="M375.36,312a7.53,7.53,0,0,1-7.53,7.52,7.227,7.227,0,0,1-1.75-.21,7.54,7.54,0,0,1-5.59-5.67,7.36,7.36,0,0,1-.18-1.64,2.829,2.829,0,0,1,0-.41,7.5,7.5,0,0,1,7.5-7.11,7,7,0,0,1,1.31.12,7.389,7.389,0,0,1,2.46.89,7.47,7.47,0,0,1,3.67,5.37,7,7,0,0,1,.11,1.14Z" transform="translate(-266.968 -250.28)" fill="#141720"/><path d="M355.55,376.13a6.71,6.71,0,0,1-6.72,6.7h-.09a7,7,0,0,1-1-.1,6.7,6.7,0,1,1,7.85-6.6Z" transform="translate(-266.968 -250.28)" fill="#141720"/><path d="M361.07,325a6.67,6.67,0,0,1-3.08,5.63,6.56,6.56,0,0,1-3.63,1.08,6.69,6.69,0,0,1-6.72-6.71,1.555,1.555,0,0,1,0-.21,6.69,6.69,0,0,1,5.11-6.3,6.431,6.431,0,0,1,1.6-.19,6.69,6.69,0,0,1,6.7,6.5,1.414,1.414,0,0,1,.02.2Z" transform="translate(-266.968 -250.28)" fill="#141720"/><path d="M415.89,301.39a6.71,6.71,0,1,1-6.71-6.71,6.71,6.71,0,0,1,6.71,6.71Z" transform="translate(-266.968 -250.28)" fill="#141720"/><path d="M353.6,348.74a6.711,6.711,0,0,1-11.43,4.77,6.141,6.141,0,0,1-.67-.78,6.71,6.71,0,0,1,.71-8.78,6.33,6.33,0,0,1,1.38-1,6.71,6.71,0,0,1,3.3-.87,6.41,6.41,0,0,1,2.9.67,6.549,6.549,0,0,1,2.41,1.92A6.67,6.67,0,0,1,353.6,348.74Z" transform="translate(-266.968 -250.28)" fill="#141720"/><circle cx="6.71" cy="6.71" r="6.71" transform="translate(181.782 97.43)" fill="#141720"/><circle cx="6.71" cy="6.71" r="6.71" transform="translate(177.362 115.62)" fill="#141720"/><path d="M366.17,318.26a6.155,6.155,0,0,1-.09,1.06,6.68,6.68,0,0,1-5,5.44,6.119,6.119,0,0,1-1.61.2,6.68,6.68,0,0,1-5.91-3.56,6.38,6.38,0,0,1-.78-2.95,1.208,1.208,0,0,1,0-.19,6.7,6.7,0,1,1,13.39,0Z" transform="translate(-266.968 -250.28)" fill="#141720"/><circle cx="6.71" cy="6.71" r="6.71" transform="translate(161.472 56.1)" fill="#141720"/><path d="M398.73,299.38a6.72,6.72,0,0,1-6.7,6.71,6.379,6.379,0,0,1-2.15-.36,6.69,6.69,0,0,1-4.55-5.81q0-.27,0-.54a6.72,6.72,0,0,1,13.3-1.31A7.088,7.088,0,0,1,398.73,299.38Z" transform="translate(-266.968 -250.28)" fill="#141720"/><path d="M454.54,486.87H345.46a54.29,54.29,0,0,1,16.1-38.67l1.12-1.09a58.845,58.845,0,0,1,4.78-4c.52-.38,1-.76,1.57-1.12,1.08-.74,2.19-1.45,3.32-2.11L374,439c.44-.24.88-.49,1.31-.76a10.17,10.17,0,0,0,.95-.6,31.782,31.782,0,0,0,2.75-2h0a34.52,34.52,0,0,0,12.71-22.41,36.441,36.441,0,0,0,.3-4.58h16.14a36.784,36.784,0,0,0,.28,4.48,35.09,35.09,0,0,0,1.68,7,34.72,34.72,0,0,0,10.95,15.41l1.12.85h0c.29.23.59.43.89.63a1.508,1.508,0,0,0,.26.18l.24.17.09.06c.34.23.69.44,1,.66s.85.51,1.29.75a.51.51,0,0,1,.18.09l1.44.83c.63.36,1.24.74,1.85,1.13,1.08.7,2.12,1.42,3.15,2.21h0a54.5,54.5,0,0,1,21.9,43.67Z" transform="translate(-266.968 -250.28)" fill="#b08874"/><path d="M454.54,486.87H345.46a54.29,54.29,0,0,1,16.1-38.67l1.12-1.09a58.845,58.845,0,0,1,4.78-4c.52-.38,1-.76,1.57-1.12,1.08-.74,2.18-1.45,3.31-2.12L374,439h0c.88-.48,1.74-1,2.57-1.56.39-.26.77-.53,1.15-.82l.12-.07c.28-.2.55-.42.83-.65l.31-.24h0c.66.68,1.36,1.31,2.08,1.93h0A29.27,29.27,0,0,0,400,444.46h.09a29.374,29.374,0,0,0,21-8.835l0,.005c.38.32.77.61,1.17.91s.55.4.84.6l.26.18.24.17.09.06c.34.23.69.44,1,.66s.85.5,1.29.74a1,1,0,0,1,.18.09c.48.27,1,.55,1.45.83.63.37,1.24.75,1.84,1.14,1.08.69,2.12,1.42,3.15,2.19h0a55.772,55.772,0,0,1,5.87,5.09,54.28,54.28,0,0,1,16.07,38.58Z" transform="translate(-266.968 -250.28)" fill="#edc7a2"/><path d="M427.63,439.85h0L426.5,441A36.91,36.91,0,0,1,400,452.15h0A36.9,36.9,0,0,1,373.42,441l-1.07-1.1h0L374,439h0l1.31-.75c.32-.2.64-.39.95-.6l.31-.21c.39-.26.78-.53,1.15-.82l.12-.07.83-.65.31-.24h0a27.01,27.01,0,0,0,2.08,1.92h0A29.27,29.27,0,0,0,400,444.46h.09a29.374,29.374,0,0,0,21-8.835l0,.005c.36.3.72.58,1.1.87h.05c.27.21.55.4.84.6l.26.18.24.17.09.06c.34.23.69.44,1,.66s.85.5,1.29.74a1,1,0,0,1,.18.09C426.66,439.29,427.16,439.57,427.63,439.85Z" transform="translate(-266.968 -250.28)" fill="#543e36"/><path d="M441.86,345.66v24.51a49.387,49.387,0,0,1-.471,6.8A54,54,0,0,1,436.7,392.66q-1,2.14-2.16,4.19l-.53.91a61.782,61.782,0,0,1-5.16,7.41c-.47.6-1,1.19-1.47,1.75a51.72,51.72,0,0,1-17.28,13.3,22.33,22.33,0,0,1-20.1,0,51.77,51.77,0,0,1-17.4-13.34c-.54-.62-1.08-1.26-1.6-1.92a61.711,61.711,0,0,1-6.45-9.8c-.45-.86-.88-1.74-1.29-2.62-.25-.52-.48-1.06-.71-1.59-.36-.82-.69-1.65-1-2.48a53.29,53.29,0,0,1-2.36-8.2c-.23-1.1-.42-2.21-.57-3.34a49.369,49.369,0,0,1-.47-6.8V345.66Z" transform="translate(-266.968 -250.28)" fill="#b08874"/><path d="M357.11,377.18h0a5.56,5.56,0,0,0,5.57-5.56V344.91h-5.57Z" transform="translate(-266.968 -250.28)" fill="#141720"/><path d="M437.32,344.91h5.57v32.27h0a5.56,5.56,0,0,1-5.57-5.56Z" transform="translate(-266.968 -250.28)" fill="#141720"/><circle cx="6.71" cy="6.71" r="6.71" transform="translate(115.912 89.64)" fill="#141720"/><path d="M380.78,345.11a6.7,6.7,0,1,1-1.962-4.748A6.71,6.71,0,0,1,380.78,345.11Z" transform="translate(-266.968 -250.28)" fill="#141720"/><path d="M364.85,347.71a6.7,6.7,0,1,1-1.962-4.748A6.71,6.71,0,0,1,364.85,347.71Z" transform="translate(-266.968 -250.28)" fill="#141720"/><path d="M415.89,345.91a6.71,6.71,0,1,1-6.71-6.71,6.71,6.71,0,0,1,6.71,6.71Z" transform="translate(-266.968 -250.28)" fill="#141720"/><path d="M436.18,345.91a6.71,6.71,0,1,1-6.71-6.71,6.71,6.71,0,0,1,6.71,6.71Z" transform="translate(-266.968 -250.28)" fill="#141720"/><path d="M450.1,352.26a6.71,6.71,0,1,1-6.71-6.71A6.71,6.71,0,0,1,450.1,352.26Z" transform="translate(-266.968 -250.28)" fill="#141720"/><circle cx="5.1" cy="5.1" r="5.1" transform="translate(127.932 91.76)" fill="#141720"/><circle cx="5.1" cy="5.1" r="5.1" transform="translate(93.352 91.25)" fill="#141720"/><circle cx="5.1" cy="5.1" r="5.1" transform="translate(110.812 91.25)" fill="#141720"/><path d="M424.82,348.24a5.1,5.1,0,1,1-1.494-3.616,5.11,5.11,0,0,1,1.494,3.616Z" transform="translate(-266.968 -250.28)" fill="#141720"/><circle cx="5.1" cy="5.1" r="5.1" transform="translate(164.112 92.86)" fill="#141720"/><path d="M435.23,358.34a.34.34,0,0,0-.29-.33,108.233,108.233,0,0,0-14.62-1.09c-7.77,0-17.8,2.44-19.54,2.44h-1.56c-.81,0-3.42-.54-6.76-1.09a81.19,81.19,0,0,0-12.77-1.35,108.186,108.186,0,0,0-12.5.8l-2.12.29a.33.33,0,0,0-.3.33l-.08,4.17a.36.36,0,0,0,.22.34l.48.17c.7.27.63,12.84,4.39,16,2.23,1.85,4.21,2.91,12.56,2.91,4.84,0,7.89-1.31,10.78-5.21,2.08-2.79,3.92-9.41,3.92-9.41a3.371,3.371,0,0,1,2.92-3h0c.07,0,2.36.05,2.95,3,0,0,1.86,6.62,3.93,9.41,2.89,3.9,5.93,5.21,10.78,5.21,8.35,0,10.33-1.06,12.56-2.91,3.75-3.15,3.69-15.72,4.39-16l.47-.17a.36.36,0,0,0,.23-.34Z" transform="translate(-266.968 -250.28)" fill="#1a1a1a"/><circle cx="7.541" cy="7.541" r="7.541" transform="matrix(0.16, -0.987, 0.987, 0.16, 175.438, 136.569)" fill="#141720"/><path d="M462.78,345a5.1,5.1,0,1,1-1.49-3.613A5.1,5.1,0,0,1,462.78,345Z" transform="translate(-266.968 -250.28)" fill="#141720"/><circle cx="5.1" cy="5.1" r="5.1" transform="translate(184.422 108.84)" fill="#141720"/><path d="M400,294.3V486.88H345.46a54.29,54.29,0,0,1,16.1-38.67l1.12-1.09a58.845,58.845,0,0,1,4.78-4c.52-.38,1-.76,1.57-1.12,1.08-.74,2.18-1.45,3.31-2.12L374,439h0c.88-.48,1.74-1,2.57-1.56.39-.26.77-.53,1.15-.82l.12-.07c.28-.2.55-.42.83-.65l.31-.24h0a34.52,34.52,0,0,0,11-15.35,51.77,51.77,0,0,1-17.4-13.34c-1-.52-1.9-1.06-2.81-1.62a6.813,6.813,0,0,1-1.21.1,7.47,7.47,0,0,1-7.25-5.6,5.09,5.09,0,0,1-7-4.75,5.451,5.451,0,0,1,.19-1.41h-.13a7.52,7.52,0,0,1-7.53-7.52,7.609,7.609,0,0,1,.81-3.4,6.71,6.71,0,0,1-5.58-6.6,6.57,6.57,0,0,1,1.08-3.64,7.51,7.51,0,0,1-3.89-6.58,7.43,7.43,0,0,1,1.92-5,5.1,5.1,0,0,1,.27-8.18,6.71,6.71,0,0,1,.71-8.78,5.11,5.11,0,0,1,1.69-8.8,7.4,7.4,0,0,1-.85-3.48,7.51,7.51,0,0,1,4.6-6.92,6.69,6.69,0,0,1,5.11-6.3,1.211,1.211,0,0,1,0-.19,6.7,6.7,0,0,1,6.7-6.72,6.4,6.4,0,0,1,.88.06,7.5,7.5,0,0,1,7.5-7.11,7,7,0,0,1,1.31.12,5.1,5.1,0,0,1,4.93-3.8,5,5,0,0,1,1.56.24,7.49,7.49,0,0,1,7.25-5.58,7.4,7.4,0,0,1,3.23.74,6.71,6.71,0,0,1,5.92-3.53,6.63,6.63,0,0,1,5.31,2.63,4.91,4.91,0,0,1,2.7-1.05Z" transform="translate(-266.968 -250.28)" fill="#ecc19c" opacity="0.5"/></g></g></svg>