<svg xmlns="http://www.w3.org/2000/svg" xmlns:xlink="http://www.w3.org/1999/xlink" width="266.071" height="266.093" viewBox="0 0 266.071 266.093"><defs><clipPath id="a"><circle cx="94.07" cy="94.07" r="94.07" transform="translate(0 133.036) rotate(-45)" fill="#d2dce5"/></clipPath></defs><g transform="translate(-920.46 -471.334)"><circle cx="94.07" cy="94.07" r="94.07" transform="translate(920.46 604.369) rotate(-45)" fill="#d2dce5"/><g transform="translate(920.46 471.355)" clip-path="url(#a)"><path d="M630.58,338.26v87.41l-110.76-1.88V336.38Z" transform="translate(-442.063 -201.545)" fill="#421800"/><path d="M682.36,346.75v28.23a5.433,5.433,0,0,1-.06,1,2.781,2.781,0,0,0,0,.71v.42a6.889,6.889,0,0,1-.09.78,10.165,10.165,0,0,1-.17,1.47v.37c0,.12-.07.49-.11.74h0c-.07.36-.13.71-.19,1.07s-.18,1-.29,1.47v.06a1.7,1.7,0,0,1,0,.22v.06a3.508,3.508,0,0,1-.17.78,2.145,2.145,0,0,1-.09.34,2.8,2.8,0,0,1-.12.56c-.04.19,0,.21-.09.31s-.05.19-.07.27c-.22.84-.47,1.67-.72,2.49l-.38,1.16a.616.616,0,0,0,0,.12c-.12.35-.24.7-.37,1.05l-.12.32c-.12.33-.25.66-.38,1s-.32.79-.48,1.18-.3.7-.46,1.05a.21.21,0,0,1-.07.18l-.51,1.1c-.18.38-.36.76-.56,1.14-.37.75-.77,1.5-1.17,2.23l-.55,1a60.787,60.787,0,0,1-5.26,7.65c-.25.34-.52.67-.8,1s-.77.92-1.16,1.36-.67.75-1,1.11h0c-1,1.06-2,2.07-3,3-.21.21-.42.39-.64.59s-.7.63-1.06.92-.56.49-.85.72c-.74.61-1.48,1.2-2.23,1.74a9.7,9.7,0,0,1-1,.68c-.51.37-1,.72-1.56,1.06-.29.19-.59.38-.89.55a35.533,35.533,0,0,1-3.15,1.76c-.26.14-.52.26-.77.38s-.53.25-.81.37-.67.3-1,.43a2.316,2.316,0,0,1-.41.16c-.4.16-.81.32-1.21.45s-1,.34-1.52.48-.71.2-1.06.28h-.07c-.35.08-.7.17-1.05.23l-.28.05c-.28,0-.57.1-.86.13s-.82.12-1.23.14a3.106,3.106,0,0,1-.43,0h-2a2.312,2.312,0,0,1-.37,0,6.875,6.875,0,0,1-.89-.09h-.2l-1.15-.18a9.412,9.412,0,0,1-1-.21,28.868,28.868,0,0,1-5.4-1.82,41.281,41.281,0,0,1-4.72-2.48c-.79-.49-1.58-1-2.36-1.55l-1.17-.84c-1.23-.89-2.44-1.87-3.63-2.92l-1-.9-1-.91c-.76-.73-1.5-1.48-2.21-2.27a.858.858,0,0,1-.13-.14c-.3-.31-.6-.64-.89-1-.83-.93-1.63-1.88-2.39-2.88-.3-.36-.57-.73-.85-1.1-1-1.38-2-2.82-2.95-4.31-.25-.4-.5-.81-.73-1.21s-.57-1-.85-1.47a57.745,57.745,0,0,1-2.79-5.76c-.13-.29-.25-.58-.35-.86s-.31-.75-.44-1.12c-.21-.55-.41-1.09-.59-1.64l-.54-1.65c-.18-.55-.31-1.07-.46-1.62s-.32-1.16-.45-1.76V384c-.2-.82-.37-1.66-.53-2.5-.2-1.11-.37-2.24-.49-3.38-.05-.36-.08-.72-.11-1.08s-.07-.75-.09-1.13c-.06-.69-.09-1.39-.11-2.09V346.75A41.87,41.87,0,0,1,638.2,305h4.59a43.272,43.272,0,0,1,6.9,1A41.68,41.68,0,0,1,667,314.35a41,41,0,0,1,6.45,6.58,41.561,41.561,0,0,1,8.9,25.45C682.36,346.5,682.36,346.62,682.36,346.75Z" transform="translate(-507.473 -249.515)" fill="#f0d0b4"/><path d="M695,489.22H586a54.25,54.25,0,0,1,2.85-17.46c0-.05,0-.1,0-.16.34-1,.71-2,1.12-3h0c.39-1,.82-1.93,1.27-2.88a54.17,54.17,0,0,1,6.64-10.59c.66-.81,1.33-1.6,2-2.36.34-.39.7-.77,1.06-1.15l1.09-1.11a53.66,53.66,0,0,1,5.89-5.08c1-.77,2.08-1.49,3.17-2.19.15-.09.29-.19.44-.27.4-.26.8-.5,1.21-.74s1.12-.65,1.68-.95h0c.44-.23.87-.49,1.3-.76A31.206,31.206,0,0,0,619.5,438a34.48,34.48,0,0,0,11-15.34,33.46,33.46,0,0,0,1.48-5.56,34.833,34.833,0,0,0,.54-6.09l8,.05h8.13A34.32,34.32,0,0,0,661.56,438a25,25,0,0,0,2.29,1.69l.23.16c.37.25.74.5,1.13.72s.86.52,1.29.75a.77.77,0,0,1,.18.1c.91.5,1.8,1,2.68,1.57l.2.13c.35.22.71.45,1.05.69.85.55,1.69,1.14,2.5,1.76h0c1,.77,2,1.59,3,2.44s1.94,1.72,2.85,2.64a54.34,54.34,0,0,1,16,38.6Z" transform="translate(-507.473 -249.515)" fill="#f0d0b4"/><path d="M695,489.22H586a54.25,54.25,0,0,1,2.85-17.46c0-.05,0-.1,0-.16.34-1,.71-2,1.12-3h0c.39-1,.82-1.93,1.27-2.88a54.17,54.17,0,0,1,6.64-10.59c.66-.81,1.33-1.6,2-2.36.34-.39.7-.77,1.06-1.15l1.09-1.11a53.66,53.66,0,0,1,5.89-5.08c1-.77,2.08-1.49,3.17-2.19.15-.09.29-.19.44-.27.4-.26.8-.5,1.21-.74s1.12-.66,1.68-1h0c.44-.24.87-.49,1.3-.75a30.671,30.671,0,0,0,3.67-2.59h0a29.32,29.32,0,0,0,21,8.86h.13a29.34,29.34,0,0,0,21-8.85h0a24.983,24.983,0,0,0,2.28,1.7l.23.16c.37.25.75.49,1.13.72s.86.51,1.29.74a1,1,0,0,1,.18.1c.91.5,1.8,1,2.68,1.58l.2.13c.35.22.71.45,1.05.69.85.55,1.69,1.14,2.5,1.76h0c1,.78,2.06,1.59,3,2.45s1.94,1.72,2.85,2.64a54.34,54.34,0,0,1,16,38.6Z" transform="translate(-507.473 -249.515)" fill="#b14fc5"/><path d="M696.22,459.05a.9.9,0,0,1-.23.08c-5.41,1.4-26.74-24.29-27-51.23a49.669,49.669,0,0,1,.38-6.54c.72-5.81,3.51-11.39,5.84-17,1.83-4.46,3.38-8.92,3.38-13.52,0-24.68-7.15-16.64-27.11-29.95-4.82-3.21-8.25-5.84-10.93-8-7.41-5.88-9.29-8-19.46-8-12.94,0-18.08,22.46-19.55,32.07-1.58,10.33-1.6,27.08,4.85,43,5,12.35,5,24.46-4.85,37.92-3.69,5.05-9.34,22.11-16.37,27.61-2.19,1.72-4.5,2.31-6.94,1.07-19.18-9.82-7.63-41.33-1.88-61.06,6.2-21.23,8.07-42.75,12.58-64.19,5.08-24.14,25.74-38.85,34.09-32.89,2.79-5,10.08-6.87,17.53-6.87a43.8,43.8,0,0,1,15,2.55c30.48,11.84,31,40.09,32.62,51.84,1.34,9.71,6.12,18.77,7.8,28.36h0a35.882,35.882,0,0,1,.58,6.15c.07,11.21-1.18,18.8,7.34,28.15C710.38,425.76,705.43,455,696.22,459.05Z" transform="translate(-507.473 -249.515)" fill="#421800"/><path d="M640.6,446.81v.05h0A14.87,14.87,0,0,1,617.15,449l-5.58-6c.94-.61,1.91-1.17,2.89-1.71h0c.44-.24.87-.49,1.3-.75a30.663,30.663,0,0,0,3.67-2.59h0a29.32,29.32,0,0,0,21,8.86Z" transform="translate(-507.473 -249.515)" fill="#e7ecf2"/><path d="M669.56,443.08l-5.5,5.91a14.87,14.87,0,0,1-23.41-2.11h0v-.05a29.34,29.34,0,0,0,21-8.85h0a24.993,24.993,0,0,0,2.28,1.7l.23.16c.37.25.75.49,1.13.72s.86.51,1.29.74a1,1,0,0,1,.18.1c.91.5,1.8,1,2.68,1.58Z" transform="translate(-507.473 -249.515)" fill="#e7ecf2"/><path d="M640.6,301.6V489.23H586a54.252,54.252,0,0,1,2.85-17.46h-3.6v-6.22c-2.19,1.72-4.5,2.31-6.94,1.07-19.18-9.82-7.63-41.33-1.88-61.06,6.2-21.23,8.07-42.75,12.58-64.19,5.08-24.14,25.74-38.85,34.09-32.89C625.86,303.47,633.15,301.6,640.6,301.6Z" transform="translate(-507.473 -249.515)" fill="#f0d0b4" opacity="0.5"/></g></g></svg>