<svg xmlns="http://www.w3.org/2000/svg" xmlns:xlink="http://www.w3.org/1999/xlink" width="188.14" height="188.14" viewBox="0 0 188.14 188.14"><defs><clipPath id="a"><circle cx="94.07" cy="94.07" r="94.07" fill="#e6e7e2"/></clipPath></defs><g transform="translate(-479.712 -0.2)"><circle cx="94.07" cy="94.07" r="94.07" transform="translate(479.712 0.2)" fill="#e6e7e2"/><g transform="translate(479.712 0.2)" clip-path="url(#a)"><path d="M432.63,202.11h0a52.184,52.184,0,0,0-6.42-4.16.63.63,0,0,0-.2-.1,34.48,34.48,0,0,1-17.85-30.23L392,167.54a34.48,34.48,0,0,1-18,30.31,57.067,57.067,0,0,0-6.51,4.16,54.43,54.43,0,0,0-22,43.77H454.54a54.4,54.4,0,0,0-21.91-43.67Z" transform="translate(-305.93 -48.17)" fill="#ecc19c"/><path d="M454.53,245.79H345.46a54.43,54.43,0,0,1,22-43.76,55.73,55.73,0,0,1,6.51-4.16h0a34.261,34.261,0,0,0,5-3.34,29.42,29.42,0,0,0,42.09,0,32.639,32.639,0,0,0,4.92,3.32.48.48,0,0,1,.19.09,52.712,52.712,0,0,1,6.43,4.16h0a54.41,54.41,0,0,1,21.93,43.69Z" transform="translate(-305.93 -48.17)" fill="#168ef7"/><path d="M358.14,86.25v42.84c0,29,25.44,52.46,41.86,52.46s41.86-23.48,41.86-52.46V86.25Z" transform="translate(-305.93 -48.17)" fill="#ecc19c"/><path d="M435,78.37a49.16,49.16,0,0,0-38.46-18.73c-27.52,0-49.81,23-49.81,51.3A51.82,51.82,0,0,0,363,148.88a57.781,57.781,0,0,1-4-21.38,55.37,55.37,0,0,1,10-32.25c6.6,2.93,17.29,4,29,2.38s21.53-5.44,27.12-10c10.18,9,16.8,23.5,16.8,39.88a57.08,57.08,0,0,1-4.8,23.2c9.83-4.07,17.06-18.58,17.06-35.84C454.17,96.39,445.88,81.15,435,78.37Z" transform="translate(-305.93 -48.17)" fill="#494846"/><path d="M400.47,59.8v186h-55a54.36,54.36,0,0,1,14-36.43,53.67,53.67,0,0,1,12.88-10.53c.55-.33,1.12-.65,1.68-1,.45-.25.88-.49,1.31-.76a32.4,32.4,0,0,0,3.68-2.58h0a34.57,34.57,0,0,0,11-15.35c-11-4.84-22.81-16.67-28.47-31.79a51.84,51.84,0,0,1-14.76-36.45c0-28.32,22.29-51.29,49.81-51.29C397.89,59.65,399.18,59.7,400.47,59.8Z" transform="translate(-305.93 -48.17)" fill="#ecc19c" opacity="0.5"/></g></g></svg>