<svg xmlns="http://www.w3.org/2000/svg" xmlns:xlink="http://www.w3.org/1999/xlink" width="188.14" height="188.14" viewBox="0 0 188.14 188.14"><defs><clipPath id="a"><circle cx="94.07" cy="94.07" r="94.07" fill="#df854f"/></clipPath></defs><g transform="translate(-0.02 -510.374)"><circle cx="94.07" cy="94.07" r="94.07" transform="translate(0.02 510.374)" fill="#df854f"/><g transform="translate(0.02 510.374)" clip-path="url(#a)"><path d="M214,489.22H105a54.29,54.29,0,0,1,2.91-17.61q.51-1.5,1.11-3h0c.39-1,.82-1.94,1.27-2.88a53.87,53.87,0,0,1,6.64-10.59c.66-.82,1.33-1.61,2-2.37.34-.39.7-.77,1.06-1.15l1.09-1.11a53.643,53.643,0,0,1,5.89-5.08c1-.77,2.09-1.49,3.18-2.19.46-.3.93-.58,1.4-.86l.83-.5.36-.19.74-.41h0c.44-.24.87-.5,1.3-.76a33.474,33.474,0,0,0,3.7-2.57,34.758,34.758,0,0,0,4.74-4.58,35.21,35.21,0,0,0,6.26-10.76,31.458,31.458,0,0,0,1-3.22c.21-.77.37-1.55.52-2.35a34.809,34.809,0,0,0,.53-6.08h16.12a34.52,34.52,0,0,0,.52,6c.13.81.31,1.6.51,2.38a32.088,32.088,0,0,0,.94,3.16,33.361,33.361,0,0,0,2.79,6,34.1,34.1,0,0,0,3.11,4.42,33.7,33.7,0,0,0,5.06,5c.39.31.78.62,1.18.91s.73.53,1.1.77a2.069,2.069,0,0,0,.24.17c.37.24.74.49,1.13.72s.85.51,1.28.75a.56.56,0,0,1,.19.09c.9.5,1.8,1,2.67,1.57.42.26.84.53,1.25.83.86.54,1.69,1.14,2.5,1.75h0c1,.77,2.05,1.6,3,2.44s1.93,1.73,2.84,2.64A54.24,54.24,0,0,1,214,489.22Z" transform="translate(-65.43 -288.47)" fill="#ecc19c"/><path d="M214,489.22H105a54.29,54.29,0,0,1,2.91-17.61q.51-1.5,1.11-3h0c.39-1,.82-1.94,1.27-2.88a53.87,53.87,0,0,1,6.64-10.59c.66-.82,1.33-1.61,2-2.37.34-.39.7-.77,1.06-1.15l1.09-1.11a53.643,53.643,0,0,1,5.89-5.08c1-.77,2.09-1.49,3.18-2.19.46-.3.93-.58,1.4-.86l.83-.5.36-.19c.24-.14.49-.29.74-.42h0l1.3-.75a31.851,31.851,0,0,0,3.67-2.59h0a29.27,29.27,0,0,0,21,8.85h1.43a29.32,29.32,0,0,0,19.67-8.8h0c.73.6,1.49,1.17,2.27,1.69a2.067,2.067,0,0,0,.24.17l1.13.72,1.28.74a1.635,1.635,0,0,1,.19.09c.9.5,1.8,1,2.67,1.58.42.26.84.53,1.25.83.86.54,1.69,1.14,2.5,1.75h0c1,.78,2.06,1.6,3,2.45s1.93,1.73,2.84,2.64A54.24,54.24,0,0,1,214,489.22Z" transform="translate(-65.43 -288.47)" fill="#57b6b2"/><path d="M176.35,424.06v6.26a4.67,4.67,0,0,1-4.66,4.65H146.74a4.57,4.57,0,0,1-3.49-1.59,4.63,4.63,0,0,1-1.17-3.06v-6.26a4.65,4.65,0,0,1,4.66-4.66h24.95a4.53,4.53,0,0,1,2.5.74,4.61,4.61,0,0,1,2.16,3.92Z" transform="translate(-65.43 -288.47)" fill="#57b6b2"/><path d="M181.75,438.88v13.65H131.54V442.41l.83-.5.36-.19.74-.41h0c.44-.24.87-.5,1.3-.76a33.468,33.468,0,0,0,3.7-2.57,34.759,34.759,0,0,0,4.74-4.58,33.849,33.849,0,0,0,3.45-4.83h25.7a34.1,34.1,0,0,0,3.11,4.42,33.7,33.7,0,0,0,5.06,5C181,438.28,181.35,438.59,181.75,438.88Z" transform="translate(-65.43 -288.47)" fill="#57b6b2"/><path d="M214.67,358.58c0,22.56-11.77,42.18-29.1,52.15A51.92,51.92,0,0,1,168.16,417a49.865,49.865,0,0,1-7.26.71h-1.39a50.818,50.818,0,0,1-8.51-.7,51.711,51.711,0,0,1-17.54-6.31c-17.33-10-29.11-29.59-29.11-52.16,0-31.86,23.46-57.84,52.87-59.11h5.55C191.75,301.39,214.67,327.1,214.67,358.58Z" transform="translate(-65.43 -288.47)" fill="#141720"/><path d="M201.37,341.26v33.72a5.433,5.433,0,0,1-.06,1c-.06.34,0,.47-.05.71a1.149,1.149,0,0,0,0,.42,2.973,2.973,0,0,1-.08.78,10.011,10.011,0,0,1-.18,1.47v.37c0,.12-.07.5-.11.74h0c-.06.36-.13.71-.19,1.07s-.18,1-.28,1.47v.06a1.433,1.433,0,0,1,0,.22s0,0,0,.06a3.39,3.39,0,0,1-.17.78,1.87,1.87,0,0,1-.08.34,2.833,2.833,0,0,1-.13.56c-.04.19,0,.21-.09.32s0,.18-.07.26c-.22.85-.46,1.67-.72,2.49-.12.39-.25.77-.38,1.16v.13c-.13.35-.25.7-.37,1,0,.1-.09.2-.13.31-.12.33-.24.66-.38,1s-.32.79-.48,1.18-.3.7-.45,1.05l-.07.18c-.18.37-.34.74-.52,1.1s-.36.76-.55,1.14c-.37.75-.78,1.5-1.18,2.23l-.55,1a61.122,61.122,0,0,1-5.25,7.65c-.26.34-.53.66-.81,1-.38.47-.77.92-1.16,1.36s-.67.75-1,1.11h0c-1,1.06-2,2.07-3,3-.21.21-.42.4-.64.59s-.7.63-1.06.93-.56.48-.85.72c-.74.6-1.48,1.19-2.23,1.73-.31.24-.63.47-.95.68-.51.37-1,.72-1.56,1.06-.29.2-.59.38-.88.56l-.15.08c-1,.62-2,1.18-3,1.67-.26.14-.51.26-.77.38l-.8.37c-.34.16-.68.3-1,.44a3.244,3.244,0,0,1-.4.15c-.4.17-.81.32-1.22.45s-1,.34-1.52.49c-.35.1-.71.19-1.06.27h-.07c-.35.09-.7.17-1,.23l-.27.05a8.736,8.736,0,0,0-.87.14c-.29.03-.82.11-1.23.13h-2.79a3.431,3.431,0,0,1-.89-.08h-.2c-.38-.05-.76-.12-1.15-.19s-.66-.12-1-.2a29.779,29.779,0,0,1-5.39-1.82,39.776,39.776,0,0,1-4.72-2.49,2.458,2.458,0,0,1-.27-.17c-.7-.43-1.41-.89-2.1-1.37l-1.17-.85c-1.22-.89-2.44-1.87-3.63-2.92l-1-.9-1-.91c-.76-.73-1.5-1.48-2.21-2.27l-.14-.13-.89-1c-.82-.92-1.63-1.88-2.39-2.88-.29-.36-.57-.73-.85-1.1q-1.5-2.07-3-4.31c-.25-.4-.49-.81-.73-1.21s-.57-1-.84-1.47a54.721,54.721,0,0,1-2.8-5.76c-.12-.29-.25-.57-.35-.86s-.31-.75-.44-1.12c-.21-.55-.4-1.09-.59-1.64s-.36-1.1-.53-1.65-.32-1.07-.47-1.62-.31-1.16-.45-1.75v-.19c-.19-.82-.37-1.65-.52-2.5-.21-1.11-.37-2.24-.5-3.38,0-.36-.08-.72-.11-1.08s-.07-.75-.09-1.13c0-.69-.08-1.39-.1-2.09V341.26A41.858,41.858,0,0,1,157.6,299.47h5.037l.91.07h.75a43.676,43.676,0,0,1,4.8.79,41.867,41.867,0,0,1,32.58,40.46C201.37,341,201.37,341.14,201.37,341.26Z" transform="translate(-65.43 -288.47)" fill="#ecc19c"/><path d="M210.7,356.75H108.32c0-30.81,21.68-55.94,48.89-57.28h6.69C190.16,302.17,210.7,326.77,210.7,356.75Z" transform="translate(-65.43 -288.47)" fill="#141720"/><path d="M160.9,299.43v189.8H105a54.29,54.29,0,0,1,2.91-17.61q.51-1.5,1.11-3h0c.39-1,.82-1.94,1.27-2.88a53.869,53.869,0,0,1,6.64-10.59c.66-.82,1.33-1.61,2-2.37.34-.39.7-.77,1.06-1.15l1.09-1.11a53.646,53.646,0,0,1,5.89-5.08c1-.77,2.09-1.49,3.18-2.19.46-.3.93-.58,1.4-.86l.83-.5.36-.19c.24-.14.49-.29.74-.42h0l1.3-.75a31.851,31.851,0,0,0,3.67-2.59h0a34.76,34.76,0,0,0,4.74-4.58,4.63,4.63,0,0,1-1.17-3.06v-6.26a4.67,4.67,0,0,1,2.44-4.1c-.7-.43-1.41-.89-2.1-1.37l-1.17-.85c-1.22-.89-2.44-1.87-3.63-2.92l-1-.9-1-.91c-.76-.73-1.5-1.48-2.21-2.27-17.33-10-29.11-29.59-29.11-52.16,0-31.86,23.46-57.84,52.87-59.11h3.59Z" transform="translate(-65.43 -288.47)" fill="#ecc19c" opacity="0.5"/></g></g></svg>